<svg xmlns="http://www.w3.org/2000/svg" xmlns:xlink="http://www.w3.org/1999/xlink" width="500" zoomAndPan="magnify" viewBox="0 0 375 374.999991" height="500" preserveAspectRatio="xMidYMid meet" version="1.0"><defs><clipPath id="995632bd15"><path d="M 65.117188 82.894531 L 274.367188 82.894531 L 274.367188 244 L 65.117188 244 Z M 65.117188 82.894531 " clip-rule="nonzero"/></clipPath><clipPath id="4d54d3a9f1"><path d="M 113 250 L 156 250 L 156 292.144531 L 113 292.144531 Z M 113 250 " clip-rule="nonzero"/></clipPath><clipPath id="7fbc82a932"><path d="M 197 250 L 240 250 L 240 292.144531 L 197 292.144531 Z M 197 250 " clip-rule="nonzero"/></clipPath></defs><g clip-path="url(#995632bd15)"><path fill="white" d="M 120.917969 215.417969 L 227.996094 215.417969 C 229.691406 215.425781 231.378906 215.289062 233.050781 215.007812 C 234.722656 214.730469 236.363281 214.3125 237.964844 213.753906 C 239.566406 213.199219 241.109375 212.511719 242.597656 211.695312 C 244.082031 210.875 245.488281 209.9375 246.816406 208.882812 C 248.144531 207.824219 249.375 206.664062 250.503906 205.402344 C 251.636719 204.136719 252.652344 202.785156 253.554688 201.351562 C 254.457031 199.914062 255.234375 198.414062 255.882812 196.84375 C 256.53125 195.277344 257.042969 193.664062 257.417969 192.011719 L 274.191406 119.339844 C 274.308594 118.828125 274.371094 118.308594 274.371094 117.785156 C 274.371094 117.261719 274.316406 116.742188 274.199219 116.230469 C 274.082031 115.71875 273.910156 115.226562 273.683594 114.75 C 273.457031 114.277344 273.179688 113.835938 272.851562 113.425781 C 272.527344 113.015625 272.15625 112.644531 271.746094 112.320312 C 271.335938 111.992188 270.894531 111.714844 270.421875 111.484375 C 269.949219 111.257812 269.457031 111.085938 268.945312 110.96875 C 268.433594 110.851562 267.917969 110.792969 267.390625 110.792969 L 105.105469 110.792969 L 99.808594 88.273438 C 99.628906 87.507812 99.328125 86.792969 98.90625 86.128906 C 98.484375 85.464844 97.964844 84.890625 97.347656 84.402344 C 96.734375 83.914062 96.054688 83.539062 95.308594 83.28125 C 94.566406 83.023438 93.804688 82.894531 93.015625 82.894531 L 72.089844 82.894531 C 71.632812 82.894531 71.179688 82.9375 70.730469 83.027344 C 70.28125 83.117188 69.84375 83.25 69.421875 83.425781 C 69 83.601562 68.597656 83.816406 68.214844 84.070312 C 67.835938 84.324219 67.484375 84.613281 67.160156 84.9375 C 66.835938 85.261719 66.546875 85.613281 66.292969 85.996094 C 66.039062 86.375 65.824219 86.777344 65.648438 87.199219 C 65.472656 87.625 65.339844 88.058594 65.25 88.507812 C 65.160156 88.957031 65.117188 89.410156 65.117188 89.871094 C 65.117188 90.328125 65.160156 90.78125 65.25 91.230469 C 65.339844 91.679688 65.472656 92.117188 65.648438 92.539062 C 65.824219 92.960938 66.039062 93.363281 66.292969 93.746094 C 66.546875 94.125 66.835938 94.476562 67.160156 94.800781 C 67.484375 95.125 67.835938 95.414062 68.214844 95.667969 C 68.597656 95.921875 69 96.136719 69.421875 96.3125 C 69.84375 96.488281 70.28125 96.621094 70.730469 96.710938 C 71.179688 96.800781 71.632812 96.84375 72.089844 96.84375 L 87.492188 96.84375 L 112.546875 203.253906 C 111.457031 203.734375 110.417969 204.304688 109.429688 204.964844 C 108.4375 205.621094 107.511719 206.359375 106.644531 207.175781 C 105.78125 207.988281 104.992188 208.875 104.277344 209.824219 C 103.5625 210.773438 102.933594 211.777344 102.390625 212.835938 C 101.847656 213.894531 101.398438 214.992188 101.039062 216.125 C 100.683594 217.261719 100.425781 218.417969 100.265625 219.59375 C 100.109375 220.773438 100.050781 221.957031 100.09375 223.144531 C 100.136719 224.332031 100.277344 225.511719 100.519531 226.675781 C 100.765625 227.839844 101.105469 228.972656 101.542969 230.078125 C 101.976562 231.183594 102.503906 232.246094 103.121094 233.261719 C 103.738281 234.277344 104.4375 235.234375 105.21875 236.132812 C 106 237.03125 106.851562 237.855469 107.773438 238.605469 C 108.695312 239.359375 109.671875 240.027344 110.707031 240.613281 C 111.742188 241.195312 112.820312 241.691406 113.941406 242.089844 C 115.058594 242.492188 116.203125 242.796875 117.375 243.003906 C 118.546875 243.210938 119.726562 243.316406 120.917969 243.320312 L 253.441406 243.320312 C 253.898438 243.320312 254.351562 243.273438 254.800781 243.1875 C 255.25 243.097656 255.6875 242.964844 256.109375 242.789062 C 256.535156 242.613281 256.9375 242.398438 257.316406 242.144531 C 257.695312 241.890625 258.050781 241.601562 258.375 241.277344 C 258.695312 240.953125 258.988281 240.601562 259.242188 240.21875 C 259.496094 239.839844 259.710938 239.4375 259.886719 239.015625 C 260.0625 238.589844 260.191406 238.15625 260.28125 237.707031 C 260.371094 237.257812 260.417969 236.800781 260.417969 236.34375 C 260.417969 235.886719 260.371094 235.433594 260.28125 234.984375 C 260.191406 234.535156 260.0625 234.097656 259.886719 233.675781 C 259.710938 233.253906 259.496094 232.851562 259.242188 232.46875 C 258.988281 232.089844 258.695312 231.738281 258.375 231.414062 C 258.050781 231.089844 257.695312 230.800781 257.316406 230.546875 C 256.9375 230.289062 256.535156 230.074219 256.109375 229.902344 C 255.6875 229.726562 255.25 229.59375 254.800781 229.503906 C 254.351562 229.414062 253.898438 229.371094 253.441406 229.371094 L 120.917969 229.371094 C 120.457031 229.371094 120.003906 229.324219 119.554688 229.234375 C 119.105469 229.144531 118.671875 229.015625 118.246094 228.839844 C 117.824219 228.664062 117.421875 228.449219 117.042969 228.195312 C 116.660156 227.941406 116.308594 227.652344 115.984375 227.328125 C 115.660156 227.003906 115.371094 226.652344 115.117188 226.269531 C 114.863281 225.890625 114.648438 225.488281 114.472656 225.0625 C 114.296875 224.640625 114.164062 224.203125 114.074219 223.753906 C 113.984375 223.304688 113.941406 222.851562 113.941406 222.394531 C 113.941406 221.9375 113.984375 221.484375 114.074219 221.035156 C 114.164062 220.585938 114.296875 220.148438 114.472656 219.726562 C 114.648438 219.300781 114.863281 218.898438 115.117188 218.519531 C 115.371094 218.140625 115.660156 217.785156 115.984375 217.460938 C 116.308594 217.140625 116.660156 216.851562 117.042969 216.59375 C 117.421875 216.339844 117.824219 216.125 118.246094 215.949219 C 118.671875 215.773438 119.105469 215.644531 119.554688 215.554688 C 120.003906 215.464844 120.457031 215.417969 120.917969 215.417969 Z M 258.625 124.746094 L 243.824219 188.871094 C 243.621094 189.761719 243.347656 190.628906 243 191.472656 C 242.648438 192.316406 242.234375 193.125 241.75 193.898438 C 241.261719 194.671875 240.714844 195.398438 240.109375 196.078125 C 239.5 196.761719 238.839844 197.386719 238.125 197.953125 C 237.410156 198.523438 236.652344 199.027344 235.851562 199.464844 C 235.054688 199.90625 234.222656 200.277344 233.359375 200.574219 C 232.496094 200.875 231.617188 201.101562 230.714844 201.25 C 229.816406 201.398438 228.910156 201.472656 227.996094 201.46875 L 126.441406 201.46875 L 108.359375 124.746094 Z M 258.625 124.746094 " fill-opacity="1" fill-rule="nonzero"/></g><g clip-path="url(#4d54d3a9f1)"><path fill="white" d="M 134.867188 250.292969 C 134.179688 250.292969 133.496094 250.328125 132.816406 250.394531 C 132.132812 250.460938 131.457031 250.5625 130.785156 250.695312 C 130.113281 250.832031 129.449219 250.996094 128.792969 251.195312 C 128.136719 251.394531 127.492188 251.625 126.859375 251.886719 C 126.226562 252.148438 125.605469 252.441406 125.003906 252.765625 C 124.398438 253.089844 123.8125 253.441406 123.242188 253.820312 C 122.671875 254.203125 122.121094 254.609375 121.589844 255.042969 C 121.0625 255.480469 120.554688 255.9375 120.070312 256.421875 C 119.585938 256.90625 119.125 257.414062 118.691406 257.945312 C 118.257812 258.476562 117.847656 259.023438 117.46875 259.59375 C 117.085938 260.164062 116.734375 260.75 116.414062 261.355469 C 116.089844 261.960938 115.796875 262.578125 115.535156 263.210938 C 115.273438 263.84375 115.042969 264.488281 114.84375 265.144531 C 114.644531 265.800781 114.476562 266.464844 114.34375 267.136719 C 114.210938 267.808594 114.109375 268.488281 114.042969 269.167969 C 113.976562 269.851562 113.941406 270.535156 113.941406 271.21875 C 113.941406 271.90625 113.976562 272.589844 114.042969 273.269531 C 114.109375 273.953125 114.210938 274.628906 114.34375 275.300781 C 114.476562 275.972656 114.644531 276.636719 114.84375 277.292969 C 115.042969 277.949219 115.273438 278.59375 115.535156 279.226562 C 115.796875 279.859375 116.089844 280.480469 116.414062 281.082031 C 116.734375 281.6875 117.085938 282.273438 117.46875 282.84375 C 117.847656 283.414062 118.257812 283.964844 118.691406 284.496094 C 119.125 285.023438 119.585938 285.53125 120.070312 286.015625 C 120.554688 286.5 121.0625 286.960938 121.589844 287.394531 C 122.121094 287.828125 122.671875 288.238281 123.242188 288.617188 C 123.8125 289 124.398438 289.351562 125.003906 289.675781 C 125.605469 289.996094 126.226562 290.289062 126.859375 290.550781 C 127.492188 290.8125 128.136719 291.042969 128.792969 291.242188 C 129.449219 291.441406 130.113281 291.609375 130.785156 291.742188 C 131.457031 291.875 132.132812 291.976562 132.816406 292.042969 C 133.496094 292.109375 134.179688 292.144531 134.867188 292.144531 C 135.550781 292.144531 136.234375 292.109375 136.917969 292.042969 C 137.597656 291.976562 138.277344 291.875 138.949219 291.742188 C 139.621094 291.609375 140.285156 291.441406 140.941406 291.242188 C 141.597656 291.042969 142.242188 290.8125 142.875 290.550781 C 143.507812 290.289062 144.125 289.996094 144.730469 289.675781 C 145.335938 289.351562 145.921875 289 146.492188 288.617188 C 147.0625 288.238281 147.609375 287.828125 148.140625 287.394531 C 148.671875 286.960938 149.179688 286.5 149.664062 286.015625 C 150.148438 285.53125 150.605469 285.023438 151.042969 284.496094 C 151.476562 283.964844 151.882812 283.414062 152.265625 282.84375 C 152.644531 282.273438 152.996094 281.6875 153.320312 281.082031 C 153.644531 280.480469 153.9375 279.859375 154.199219 279.226562 C 154.460938 278.59375 154.691406 277.949219 154.890625 277.292969 C 155.089844 276.636719 155.253906 275.972656 155.390625 275.300781 C 155.523438 274.628906 155.625 273.953125 155.691406 273.269531 C 155.757812 272.589844 155.792969 271.90625 155.792969 271.21875 C 155.792969 270.535156 155.757812 269.851562 155.691406 269.167969 C 155.625 268.488281 155.523438 267.808594 155.390625 267.136719 C 155.253906 266.464844 155.089844 265.800781 154.890625 265.144531 C 154.691406 264.488281 154.460938 263.84375 154.199219 263.210938 C 153.9375 262.578125 153.644531 261.960938 153.320312 261.355469 C 152.996094 260.75 152.644531 260.164062 152.265625 259.59375 C 151.882812 259.023438 151.476562 258.476562 151.042969 257.945312 C 150.605469 257.414062 150.148438 256.90625 149.664062 256.421875 C 149.179688 255.9375 148.671875 255.480469 148.140625 255.042969 C 147.609375 254.609375 147.0625 254.203125 146.492188 253.820312 C 145.921875 253.441406 145.335938 253.089844 144.730469 252.765625 C 144.125 252.441406 143.507812 252.148438 142.875 251.886719 C 142.242188 251.625 141.597656 251.394531 140.941406 251.195312 C 140.285156 250.996094 139.621094 250.832031 138.949219 250.695312 C 138.277344 250.5625 137.597656 250.460938 136.917969 250.394531 C 136.234375 250.328125 135.550781 250.292969 134.867188 250.292969 Z M 134.867188 278.195312 C 134.410156 278.195312 133.953125 278.148438 133.503906 278.0625 C 133.054688 277.972656 132.621094 277.839844 132.195312 277.664062 C 131.773438 277.488281 131.371094 277.273438 130.992188 277.019531 C 130.609375 276.765625 130.257812 276.476562 129.933594 276.152344 C 129.609375 275.828125 129.320312 275.476562 129.066406 275.09375 C 128.8125 274.714844 128.597656 274.3125 128.421875 273.890625 C 128.246094 273.464844 128.113281 273.03125 128.023438 272.582031 C 127.9375 272.132812 127.890625 271.675781 127.890625 271.21875 C 127.890625 270.761719 127.9375 270.308594 128.023438 269.859375 C 128.113281 269.410156 128.246094 268.972656 128.421875 268.550781 C 128.597656 268.128906 128.8125 267.726562 129.066406 267.34375 C 129.320312 266.964844 129.609375 266.613281 129.933594 266.289062 C 130.257812 265.964844 130.609375 265.675781 130.992188 265.421875 C 131.371094 265.164062 131.773438 264.949219 132.195312 264.777344 C 132.621094 264.601562 133.054688 264.46875 133.503906 264.378906 C 133.953125 264.289062 134.410156 264.246094 134.867188 264.246094 C 135.324219 264.246094 135.777344 264.289062 136.226562 264.378906 C 136.675781 264.46875 137.113281 264.601562 137.535156 264.777344 C 137.957031 264.949219 138.359375 265.164062 138.742188 265.421875 C 139.121094 265.675781 139.472656 265.964844 139.796875 266.289062 C 140.121094 266.613281 140.410156 266.964844 140.664062 267.34375 C 140.921875 267.726562 141.136719 268.128906 141.308594 268.550781 C 141.484375 268.972656 141.617188 269.410156 141.707031 269.859375 C 141.796875 270.308594 141.839844 270.761719 141.839844 271.21875 C 141.839844 271.675781 141.796875 272.132812 141.707031 272.582031 C 141.617188 273.03125 141.484375 273.464844 141.308594 273.890625 C 141.136719 274.3125 140.921875 274.714844 140.664062 275.09375 C 140.410156 275.476562 140.121094 275.828125 139.796875 276.152344 C 139.472656 276.476562 139.121094 276.765625 138.742188 277.019531 C 138.359375 277.273438 137.957031 277.488281 137.535156 277.664062 C 137.113281 277.839844 136.675781 277.972656 136.226562 278.0625 C 135.777344 278.148438 135.324219 278.195312 134.867188 278.195312 Z M 134.867188 278.195312 " fill-opacity="1" fill-rule="nonzero"/></g><g clip-path="url(#7fbc82a932)"><path fill="white" d="M 218.566406 250.292969 C 217.882812 250.292969 217.199219 250.328125 216.515625 250.394531 C 215.832031 250.460938 215.15625 250.5625 214.484375 250.695312 C 213.8125 250.832031 213.148438 250.996094 212.492188 251.195312 C 211.835938 251.394531 211.191406 251.625 210.558594 251.886719 C 209.925781 252.148438 209.308594 252.441406 208.703125 252.765625 C 208.097656 253.089844 207.511719 253.441406 206.941406 253.820312 C 206.371094 254.203125 205.820312 254.609375 205.292969 255.042969 C 204.761719 255.480469 204.253906 255.9375 203.769531 256.421875 C 203.285156 256.90625 202.824219 257.414062 202.390625 257.945312 C 201.957031 258.476562 201.546875 259.023438 201.167969 259.59375 C 200.785156 260.164062 200.433594 260.75 200.113281 261.355469 C 199.789062 261.960938 199.496094 262.578125 199.234375 263.210938 C 198.972656 263.84375 198.742188 264.488281 198.542969 265.144531 C 198.34375 265.800781 198.175781 266.464844 198.042969 267.136719 C 197.910156 267.808594 197.808594 268.488281 197.742188 269.167969 C 197.675781 269.851562 197.640625 270.535156 197.640625 271.21875 C 197.640625 271.90625 197.675781 272.589844 197.742188 273.269531 C 197.808594 273.953125 197.910156 274.628906 198.042969 275.300781 C 198.175781 275.972656 198.34375 276.636719 198.542969 277.292969 C 198.742188 277.949219 198.972656 278.59375 199.234375 279.226562 C 199.496094 279.859375 199.789062 280.480469 200.113281 281.082031 C 200.433594 281.6875 200.785156 282.273438 201.167969 282.84375 C 201.546875 283.414062 201.957031 283.964844 202.390625 284.496094 C 202.824219 285.023438 203.285156 285.53125 203.769531 286.015625 C 204.253906 286.5 204.761719 286.960938 205.292969 287.394531 C 205.820312 287.828125 206.371094 288.238281 206.941406 288.617188 C 207.511719 289 208.097656 289.351562 208.703125 289.675781 C 209.308594 289.996094 209.925781 290.289062 210.558594 290.550781 C 211.191406 290.8125 211.835938 291.042969 212.492188 291.242188 C 213.148438 291.441406 213.8125 291.609375 214.484375 291.742188 C 215.15625 291.875 215.832031 291.976562 216.515625 292.042969 C 217.199219 292.109375 217.882812 292.144531 218.566406 292.144531 C 219.25 292.144531 219.933594 292.109375 220.617188 292.042969 C 221.300781 291.976562 221.976562 291.875 222.648438 291.742188 C 223.320312 291.609375 223.984375 291.441406 224.640625 291.242188 C 225.296875 291.042969 225.941406 290.8125 226.574219 290.550781 C 227.207031 290.289062 227.824219 289.996094 228.429688 289.675781 C 229.035156 289.351562 229.621094 289 230.191406 288.617188 C 230.761719 288.238281 231.3125 287.828125 231.839844 287.394531 C 232.371094 286.960938 232.878906 286.5 233.363281 286.015625 C 233.847656 285.53125 234.308594 285.023438 234.742188 284.496094 C 235.175781 283.964844 235.585938 283.414062 235.964844 282.84375 C 236.34375 282.273438 236.699219 281.6875 237.019531 281.082031 C 237.34375 280.480469 237.636719 279.859375 237.898438 279.226562 C 238.160156 278.59375 238.390625 277.949219 238.589844 277.292969 C 238.789062 276.636719 238.957031 275.972656 239.089844 275.300781 C 239.222656 274.628906 239.324219 273.953125 239.390625 273.269531 C 239.457031 272.589844 239.492188 271.90625 239.492188 271.21875 C 239.492188 270.535156 239.457031 269.851562 239.390625 269.167969 C 239.324219 268.488281 239.222656 267.808594 239.089844 267.136719 C 238.957031 266.464844 238.789062 265.800781 238.589844 265.144531 C 238.390625 264.488281 238.160156 263.84375 237.898438 263.210938 C 237.636719 262.578125 237.34375 261.960938 237.019531 261.355469 C 236.699219 260.75 236.34375 260.164062 235.964844 259.59375 C 235.585938 259.023438 235.175781 258.476562 234.742188 257.945312 C 234.308594 257.414062 233.847656 256.90625 233.363281 256.421875 C 232.878906 255.9375 232.371094 255.480469 231.839844 255.042969 C 231.3125 254.609375 230.761719 254.203125 230.191406 253.820312 C 229.621094 253.441406 229.035156 253.089844 228.429688 252.765625 C 227.824219 252.441406 227.207031 252.148438 226.574219 251.886719 C 225.941406 251.625 225.296875 251.394531 224.640625 251.195312 C 223.984375 250.996094 223.320312 250.832031 222.648438 250.695312 C 221.976562 250.5625 221.300781 250.460938 220.617188 250.394531 C 219.933594 250.328125 219.25 250.292969 218.566406 250.292969 Z M 218.566406 278.195312 C 218.109375 278.195312 217.65625 278.148438 217.207031 278.0625 C 216.757812 277.972656 216.320312 277.839844 215.898438 277.664062 C 215.472656 277.488281 215.070312 277.273438 214.691406 277.019531 C 214.308594 276.765625 213.957031 276.476562 213.632812 276.152344 C 213.308594 275.828125 213.019531 275.476562 212.765625 275.09375 C 212.511719 274.714844 212.296875 274.3125 212.121094 273.890625 C 211.945312 273.464844 211.816406 273.03125 211.726562 272.582031 C 211.636719 272.132812 211.589844 271.675781 211.589844 271.21875 C 211.589844 270.761719 211.636719 270.308594 211.726562 269.859375 C 211.816406 269.410156 211.945312 268.972656 212.121094 268.550781 C 212.296875 268.128906 212.511719 267.726562 212.765625 267.34375 C 213.019531 266.964844 213.308594 266.613281 213.632812 266.289062 C 213.957031 265.964844 214.308594 265.675781 214.691406 265.421875 C 215.070312 265.164062 215.472656 264.949219 215.898438 264.777344 C 216.320312 264.601562 216.757812 264.46875 217.207031 264.378906 C 217.65625 264.289062 218.109375 264.246094 218.566406 264.246094 C 219.023438 264.246094 219.476562 264.289062 219.925781 264.378906 C 220.375 264.46875 220.8125 264.601562 221.234375 264.777344 C 221.660156 264.949219 222.0625 265.164062 222.441406 265.421875 C 222.820312 265.675781 223.175781 265.964844 223.5 266.289062 C 223.820312 266.613281 224.113281 266.964844 224.367188 267.34375 C 224.621094 267.726562 224.835938 268.128906 225.011719 268.550781 C 225.1875 268.972656 225.316406 269.410156 225.40625 269.859375 C 225.496094 270.308594 225.542969 270.761719 225.542969 271.21875 C 225.542969 271.675781 225.496094 272.132812 225.40625 272.582031 C 225.316406 273.03125 225.1875 273.464844 225.011719 273.890625 C 224.835938 274.3125 224.621094 274.714844 224.367188 275.09375 C 224.113281 275.476562 223.820312 275.828125 223.5 276.152344 C 223.175781 276.476562 222.820312 276.765625 222.441406 277.019531 C 222.0625 277.273438 221.660156 277.488281 221.234375 277.664062 C 220.8125 277.839844 220.375 277.972656 219.925781 278.0625 C 219.476562 278.148438 219.023438 278.195312 218.566406 278.195312 Z M 218.566406 278.195312 " fill-opacity="1" fill-rule="nonzero"/></g></svg>