<svg xmlns="http://www.w3.org/2000/svg" xmlns:xlink="http://www.w3.org/1999/xlink" width="500" zoomAndPan="magnify" viewBox="0 0 375 374.999991" height="500" preserveAspectRatio="xMidYMid meet" version="1.0"><defs><clipPath id="4dd3ded3a2"><path d="M 64.953125 82.894531 L 289.953125 82.894531 L 289.953125 263 L 64.953125 263 Z M 64.953125 82.894531 " clip-rule="nonzero"/></clipPath><clipPath id="6c41c36674"><path d="M 132 270 L 170 270 L 170 307.894531 L 132 307.894531 Z M 132 270 " clip-rule="nonzero"/></clipPath><clipPath id="006e782b9e"><path d="M 222 270 L 260 270 L 260 307.894531 L 222 307.894531 Z M 222 270 " clip-rule="nonzero"/></clipPath></defs><g clip-path="url(#4dd3ded3a2)"><path fill="white" d="M 267.453125 247.894531 L 124.953125 247.894531 C 124.460938 247.894531 123.972656 247.847656 123.488281 247.75 C 123.007812 247.65625 122.535156 247.511719 122.082031 247.324219 C 121.628906 247.136719 121.195312 246.90625 120.785156 246.628906 C 120.375 246.355469 119.996094 246.046875 119.648438 245.699219 C 119.300781 245.351562 118.988281 244.972656 118.714844 244.5625 C 118.441406 244.152344 118.210938 243.71875 118.023438 243.265625 C 117.835938 242.808594 117.691406 242.339844 117.597656 241.859375 C 117.5 241.375 117.453125 240.886719 117.453125 240.394531 C 117.453125 239.902344 117.5 239.414062 117.597656 238.929688 C 117.691406 238.449219 117.835938 237.980469 118.023438 237.523438 C 118.210938 237.070312 118.441406 236.636719 118.714844 236.226562 C 118.988281 235.820312 119.300781 235.441406 119.648438 235.089844 C 119.996094 234.742188 120.375 234.433594 120.785156 234.160156 C 121.195312 233.886719 121.628906 233.652344 122.082031 233.464844 C 122.535156 233.277344 123.007812 233.136719 123.488281 233.039062 C 123.972656 232.941406 124.460938 232.894531 124.953125 232.894531 L 259.953125 232.894531 C 260.808594 232.894531 261.644531 232.753906 262.453125 232.464844 C 263.261719 232.179688 264 231.769531 264.667969 231.230469 C 265.335938 230.691406 265.894531 230.054688 266.34375 229.324219 C 266.792969 228.59375 267.105469 227.808594 267.289062 226.96875 L 289.789062 121.96875 C 289.90625 121.421875 289.960938 120.871094 289.953125 120.308594 C 289.949219 119.75 289.878906 119.199219 289.75 118.65625 C 289.621094 118.109375 289.433594 117.585938 289.183594 117.085938 C 288.9375 116.582031 288.640625 116.117188 288.289062 115.679688 C 287.9375 115.246094 287.539062 114.855469 287.101562 114.507812 C 286.664062 114.160156 286.191406 113.867188 285.683594 113.625 C 285.179688 113.386719 284.65625 113.203125 284.109375 113.078125 C 283.5625 112.957031 283.011719 112.894531 282.453125 112.894531 L 107.632812 112.894531 L 102.28125 88.765625 C 102.09375 87.933594 101.777344 87.15625 101.324219 86.429688 C 100.875 85.707031 100.316406 85.078125 99.648438 84.542969 C 98.984375 84.007812 98.246094 83.601562 97.441406 83.316406 C 96.636719 83.035156 95.804688 82.894531 94.953125 82.894531 L 72.453125 82.894531 C 71.960938 82.894531 71.472656 82.941406 70.988281 83.039062 C 70.507812 83.136719 70.035156 83.277344 69.582031 83.464844 C 69.128906 83.652344 68.695312 83.886719 68.285156 84.160156 C 67.875 84.433594 67.496094 84.742188 67.148438 85.089844 C 66.800781 85.441406 66.488281 85.820312 66.214844 86.226562 C 65.941406 86.636719 65.710938 87.070312 65.523438 87.523438 C 65.335938 87.980469 65.191406 88.449219 65.097656 88.929688 C 65 89.414062 64.953125 89.902344 64.953125 90.394531 C 64.953125 90.886719 65 91.375 65.097656 91.859375 C 65.191406 92.339844 65.335938 92.808594 65.523438 93.265625 C 65.710938 93.71875 65.941406 94.152344 66.214844 94.5625 C 66.488281 94.972656 66.800781 95.351562 67.148438 95.699219 C 67.496094 96.046875 67.875 96.355469 68.285156 96.628906 C 68.695312 96.90625 69.128906 97.136719 69.582031 97.324219 C 70.035156 97.511719 70.507812 97.65625 70.988281 97.75 C 71.472656 97.847656 71.960938 97.894531 72.453125 97.894531 L 88.953125 97.894531 L 116.019531 219.769531 C 114.84375 220.28125 113.722656 220.890625 112.652344 221.59375 C 111.578125 222.296875 110.574219 223.089844 109.640625 223.964844 C 108.703125 224.839844 107.847656 225.789062 107.074219 226.808594 C 106.300781 227.832031 105.621094 228.914062 105.03125 230.050781 C 104.441406 231.1875 103.953125 232.367188 103.566406 233.589844 C 103.175781 234.8125 102.894531 236.058594 102.722656 237.328125 C 102.546875 238.597656 102.480469 239.875 102.523438 241.152344 C 102.566406 242.433594 102.71875 243.703125 102.980469 244.957031 C 103.238281 246.214844 103.605469 247.4375 104.074219 248.628906 C 104.542969 249.824219 105.109375 250.96875 105.773438 252.0625 C 106.4375 253.160156 107.191406 254.191406 108.03125 255.160156 C 108.875 256.125 109.789062 257.015625 110.785156 257.824219 C 111.777344 258.636719 112.832031 259.355469 113.945312 259.984375 C 115.0625 260.617188 116.222656 261.148438 117.429688 261.578125 C 118.636719 262.011719 119.871094 262.335938 121.136719 262.558594 C 122.398438 262.777344 123.671875 262.890625 124.953125 262.894531 L 267.453125 262.894531 C 267.945312 262.894531 268.433594 262.847656 268.914062 262.75 C 269.398438 262.65625 269.867188 262.511719 270.320312 262.324219 C 270.777344 262.136719 271.210938 261.90625 271.617188 261.628906 C 272.027344 261.355469 272.40625 261.046875 272.753906 260.699219 C 273.105469 260.351562 273.414062 259.972656 273.6875 259.5625 C 273.960938 259.152344 274.191406 258.71875 274.382812 258.265625 C 274.570312 257.808594 274.710938 257.339844 274.808594 256.859375 C 274.902344 256.375 274.953125 255.886719 274.953125 255.394531 C 274.953125 254.902344 274.902344 254.414062 274.808594 253.929688 C 274.710938 253.449219 274.570312 252.980469 274.382812 252.523438 C 274.191406 252.070312 273.960938 251.636719 273.6875 251.226562 C 273.414062 250.820312 273.105469 250.441406 272.753906 250.089844 C 272.40625 249.742188 272.027344 249.433594 271.617188 249.160156 C 271.210938 248.886719 270.777344 248.652344 270.320312 248.464844 C 269.867188 248.277344 269.398438 248.136719 268.914062 248.039062 C 268.433594 247.941406 267.945312 247.894531 267.453125 247.894531 Z M 222.453125 150.394531 C 222.453125 149.902344 222.5 149.414062 222.597656 148.929688 C 222.691406 148.449219 222.835938 147.980469 223.023438 147.523438 C 223.210938 147.070312 223.441406 146.636719 223.714844 146.226562 C 223.988281 145.820312 224.300781 145.441406 224.648438 145.089844 C 224.996094 144.742188 225.375 144.433594 225.785156 144.160156 C 226.195312 143.886719 226.628906 143.652344 227.082031 143.464844 C 227.535156 143.277344 228.007812 143.136719 228.488281 143.039062 C 228.972656 142.941406 229.460938 142.894531 229.953125 142.894531 C 230.445312 142.894531 230.933594 142.941406 231.414062 143.039062 C 231.898438 143.136719 232.367188 143.277344 232.820312 143.464844 C 233.277344 143.652344 233.710938 143.886719 234.117188 144.160156 C 234.527344 144.433594 234.90625 144.742188 235.253906 145.089844 C 235.605469 145.441406 235.914062 145.820312 236.1875 146.226562 C 236.460938 146.636719 236.691406 147.070312 236.882812 147.523438 C 237.070312 147.980469 237.210938 148.449219 237.308594 148.929688 C 237.402344 149.414062 237.453125 149.902344 237.453125 150.394531 L 237.453125 195.394531 C 237.453125 195.886719 237.402344 196.375 237.308594 196.859375 C 237.210938 197.339844 237.070312 197.808594 236.882812 198.265625 C 236.691406 198.71875 236.460938 199.152344 236.1875 199.5625 C 235.914062 199.972656 235.605469 200.351562 235.253906 200.699219 C 234.90625 201.046875 234.527344 201.355469 234.117188 201.628906 C 233.710938 201.90625 233.277344 202.136719 232.820312 202.324219 C 232.367188 202.511719 231.898438 202.65625 231.414062 202.75 C 230.933594 202.847656 230.445312 202.894531 229.953125 202.894531 C 229.460938 202.894531 228.972656 202.847656 228.488281 202.75 C 228.007812 202.65625 227.535156 202.511719 227.082031 202.324219 C 226.628906 202.136719 226.195312 201.90625 225.785156 201.628906 C 225.375 201.355469 224.996094 201.046875 224.648438 200.699219 C 224.300781 200.351562 223.988281 199.972656 223.714844 199.5625 C 223.441406 199.152344 223.210938 198.71875 223.023438 198.265625 C 222.835938 197.808594 222.691406 197.339844 222.597656 196.859375 C 222.5 196.375 222.453125 195.886719 222.453125 195.394531 Z M 184.953125 150.394531 C 184.953125 149.902344 185 149.414062 185.097656 148.929688 C 185.191406 148.449219 185.335938 147.980469 185.523438 147.523438 C 185.710938 147.070312 185.941406 146.636719 186.214844 146.226562 C 186.488281 145.820312 186.800781 145.441406 187.148438 145.089844 C 187.496094 144.742188 187.875 144.433594 188.285156 144.160156 C 188.695312 143.886719 189.128906 143.652344 189.582031 143.464844 C 190.035156 143.277344 190.507812 143.136719 190.988281 143.039062 C 191.472656 142.941406 191.960938 142.894531 192.453125 142.894531 C 192.945312 142.894531 193.433594 142.941406 193.914062 143.039062 C 194.398438 143.136719 194.867188 143.277344 195.320312 143.464844 C 195.777344 143.652344 196.210938 143.886719 196.617188 144.160156 C 197.027344 144.433594 197.40625 144.742188 197.753906 145.089844 C 198.105469 145.441406 198.414062 145.820312 198.6875 146.226562 C 198.960938 146.636719 199.191406 147.070312 199.382812 147.523438 C 199.570312 147.980469 199.710938 148.449219 199.808594 148.929688 C 199.902344 149.414062 199.953125 149.902344 199.953125 150.394531 L 199.953125 195.394531 C 199.953125 195.886719 199.902344 196.375 199.808594 196.859375 C 199.710938 197.339844 199.570312 197.808594 199.382812 198.265625 C 199.191406 198.71875 198.960938 199.152344 198.6875 199.5625 C 198.414062 199.972656 198.105469 200.351562 197.753906 200.699219 C 197.40625 201.046875 197.027344 201.355469 196.617188 201.628906 C 196.210938 201.90625 195.777344 202.136719 195.320312 202.324219 C 194.867188 202.511719 194.398438 202.65625 193.914062 202.75 C 193.433594 202.847656 192.945312 202.894531 192.453125 202.894531 C 191.960938 202.894531 191.472656 202.847656 190.988281 202.75 C 190.507812 202.65625 190.035156 202.511719 189.582031 202.324219 C 189.128906 202.136719 188.695312 201.90625 188.285156 201.628906 C 187.875 201.355469 187.496094 201.046875 187.148438 200.699219 C 186.800781 200.351562 186.488281 199.972656 186.214844 199.5625 C 185.941406 199.152344 185.710938 198.71875 185.523438 198.265625 C 185.335938 197.808594 185.191406 197.339844 185.097656 196.859375 C 185 196.375 184.953125 195.886719 184.953125 195.394531 Z M 147.453125 150.394531 C 147.453125 149.902344 147.5 149.414062 147.597656 148.929688 C 147.691406 148.449219 147.835938 147.980469 148.023438 147.523438 C 148.210938 147.070312 148.441406 146.636719 148.714844 146.226562 C 148.988281 145.820312 149.300781 145.441406 149.648438 145.089844 C 149.996094 144.742188 150.375 144.433594 150.785156 144.160156 C 151.195312 143.886719 151.628906 143.652344 152.082031 143.464844 C 152.535156 143.277344 153.007812 143.136719 153.488281 143.039062 C 153.972656 142.941406 154.460938 142.894531 154.953125 142.894531 C 155.445312 142.894531 155.933594 142.941406 156.414062 143.039062 C 156.898438 143.136719 157.367188 143.277344 157.820312 143.464844 C 158.277344 143.652344 158.710938 143.886719 159.117188 144.160156 C 159.527344 144.433594 159.90625 144.742188 160.253906 145.089844 C 160.605469 145.441406 160.914062 145.820312 161.1875 146.226562 C 161.460938 146.636719 161.691406 147.070312 161.882812 147.523438 C 162.070312 147.980469 162.210938 148.449219 162.308594 148.929688 C 162.402344 149.414062 162.453125 149.902344 162.453125 150.394531 L 162.453125 195.394531 C 162.453125 195.886719 162.402344 196.375 162.308594 196.859375 C 162.210938 197.339844 162.070312 197.808594 161.882812 198.265625 C 161.691406 198.71875 161.460938 199.152344 161.1875 199.5625 C 160.914062 199.972656 160.605469 200.351562 160.253906 200.699219 C 159.90625 201.046875 159.527344 201.355469 159.117188 201.628906 C 158.710938 201.90625 158.277344 202.136719 157.820312 202.324219 C 157.367188 202.511719 156.898438 202.65625 156.414062 202.75 C 155.933594 202.847656 155.445312 202.894531 154.953125 202.894531 C 154.460938 202.894531 153.972656 202.847656 153.488281 202.75 C 153.007812 202.65625 152.535156 202.511719 152.082031 202.324219 C 151.628906 202.136719 151.195312 201.90625 150.785156 201.628906 C 150.375 201.355469 149.996094 201.046875 149.648438 200.699219 C 149.300781 200.351562 148.988281 199.972656 148.714844 199.5625 C 148.441406 199.152344 148.210938 198.71875 148.023438 198.265625 C 147.835938 197.808594 147.691406 197.339844 147.597656 196.859375 C 147.5 196.375 147.453125 195.886719 147.453125 195.394531 Z M 147.453125 150.394531 " fill-opacity="1" fill-rule="nonzero"/></g><g clip-path="url(#6c41c36674)"><path fill="white" d="M 169.953125 289.144531 C 169.953125 289.757812 169.921875 290.371094 169.863281 290.984375 C 169.800781 291.59375 169.710938 292.199219 169.59375 292.800781 C 169.472656 293.40625 169.324219 294 169.144531 294.585938 C 168.964844 295.175781 168.761719 295.753906 168.523438 296.320312 C 168.289062 296.886719 168.027344 297.441406 167.738281 297.984375 C 167.449219 298.523438 167.132812 299.050781 166.792969 299.5625 C 166.449219 300.074219 166.085938 300.566406 165.695312 301.039062 C 165.304688 301.515625 164.894531 301.96875 164.460938 302.402344 C 164.027344 302.835938 163.570312 303.25 163.097656 303.640625 C 162.621094 304.027344 162.128906 304.394531 161.617188 304.734375 C 161.109375 305.074219 160.582031 305.390625 160.039062 305.679688 C 159.5 305.96875 158.945312 306.234375 158.378906 306.46875 C 157.808594 306.703125 157.234375 306.910156 156.644531 307.085938 C 156.058594 307.265625 155.460938 307.414062 154.859375 307.535156 C 154.257812 307.65625 153.652344 307.746094 153.039062 307.804688 C 152.429688 307.863281 151.816406 307.894531 151.203125 307.894531 C 150.589844 307.894531 149.976562 307.863281 149.363281 307.804688 C 148.753906 307.746094 148.148438 307.65625 147.542969 307.535156 C 146.941406 307.414062 146.347656 307.265625 145.757812 307.085938 C 145.171875 306.910156 144.59375 306.703125 144.027344 306.46875 C 143.460938 306.234375 142.90625 305.96875 142.363281 305.679688 C 141.820312 305.390625 141.296875 305.074219 140.785156 304.734375 C 140.273438 304.394531 139.78125 304.027344 139.308594 303.640625 C 138.832031 303.25 138.378906 302.835938 137.945312 302.402344 C 137.507812 301.96875 137.097656 301.515625 136.707031 301.039062 C 136.320312 300.566406 135.953125 300.074219 135.613281 299.5625 C 135.269531 299.050781 134.957031 298.523438 134.667969 297.984375 C 134.375 297.441406 134.113281 296.886719 133.878906 296.320312 C 133.644531 295.753906 133.4375 295.175781 133.257812 294.585938 C 133.082031 294 132.933594 293.40625 132.8125 292.800781 C 132.691406 292.199219 132.601562 291.59375 132.542969 290.984375 C 132.480469 290.371094 132.453125 289.757812 132.453125 289.144531 C 132.453125 288.53125 132.480469 287.917969 132.542969 287.308594 C 132.601562 286.695312 132.691406 286.089844 132.8125 285.488281 C 132.933594 284.882812 133.082031 284.289062 133.257812 283.703125 C 133.4375 283.113281 133.644531 282.535156 133.878906 281.96875 C 134.113281 281.402344 134.375 280.847656 134.667969 280.304688 C 134.957031 279.765625 135.269531 279.238281 135.613281 278.726562 C 135.953125 278.21875 136.320312 277.722656 136.707031 277.25 C 137.097656 276.773438 137.507812 276.320312 137.945312 275.886719 C 138.378906 275.453125 138.832031 275.039062 139.308594 274.652344 C 139.78125 274.261719 140.273438 273.894531 140.785156 273.554688 C 141.296875 273.214844 141.820312 272.898438 142.363281 272.609375 C 142.90625 272.320312 143.460938 272.058594 144.027344 271.820312 C 144.59375 271.585938 145.171875 271.378906 145.757812 271.203125 C 146.347656 271.023438 146.941406 270.875 147.542969 270.753906 C 148.148438 270.636719 148.753906 270.546875 149.363281 270.484375 C 149.976562 270.425781 150.589844 270.394531 151.203125 270.394531 C 151.816406 270.394531 152.429688 270.425781 153.039062 270.484375 C 153.652344 270.546875 154.257812 270.636719 154.859375 270.753906 C 155.460938 270.875 156.058594 271.023438 156.644531 271.203125 C 157.234375 271.378906 157.808594 271.585938 158.378906 271.820312 C 158.945312 272.058594 159.5 272.320312 160.039062 272.609375 C 160.582031 272.898438 161.109375 273.214844 161.617188 273.554688 C 162.128906 273.894531 162.621094 274.261719 163.097656 274.652344 C 163.570312 275.039062 164.027344 275.453125 164.460938 275.886719 C 164.894531 276.320312 165.304688 276.773438 165.695312 277.25 C 166.085938 277.722656 166.449219 278.21875 166.792969 278.726562 C 167.132812 279.238281 167.449219 279.765625 167.738281 280.304688 C 168.027344 280.847656 168.289062 281.402344 168.523438 281.96875 C 168.761719 282.535156 168.964844 283.113281 169.144531 283.703125 C 169.324219 284.289062 169.472656 284.882812 169.59375 285.488281 C 169.710938 286.089844 169.800781 286.695312 169.863281 287.308594 C 169.921875 287.917969 169.953125 288.53125 169.953125 289.144531 Z M 169.953125 289.144531 " fill-opacity="1" fill-rule="nonzero"/></g><g clip-path="url(#006e782b9e)"><path fill="white" d="M 259.953125 289.144531 C 259.953125 289.757812 259.921875 290.371094 259.863281 290.984375 C 259.800781 291.59375 259.710938 292.199219 259.59375 292.800781 C 259.472656 293.40625 259.324219 294 259.144531 294.585938 C 258.964844 295.175781 258.761719 295.753906 258.523438 296.320312 C 258.289062 296.886719 258.027344 297.441406 257.738281 297.984375 C 257.449219 298.523438 257.132812 299.050781 256.792969 299.5625 C 256.449219 300.074219 256.085938 300.566406 255.695312 301.039062 C 255.304688 301.515625 254.894531 301.96875 254.460938 302.402344 C 254.027344 302.835938 253.570312 303.25 253.097656 303.640625 C 252.621094 304.027344 252.128906 304.394531 251.617188 304.734375 C 251.109375 305.074219 250.582031 305.390625 250.039062 305.679688 C 249.5 305.96875 248.945312 306.234375 248.378906 306.46875 C 247.808594 306.703125 247.234375 306.910156 246.644531 307.085938 C 246.058594 307.265625 245.460938 307.414062 244.859375 307.535156 C 244.257812 307.65625 243.652344 307.746094 243.039062 307.804688 C 242.429688 307.863281 241.816406 307.894531 241.203125 307.894531 C 240.589844 307.894531 239.976562 307.863281 239.363281 307.804688 C 238.753906 307.746094 238.144531 307.65625 237.542969 307.535156 C 236.941406 307.414062 236.347656 307.265625 235.757812 307.085938 C 235.171875 306.910156 234.59375 306.703125 234.027344 306.46875 C 233.460938 306.234375 232.90625 305.96875 232.363281 305.679688 C 231.820312 305.390625 231.296875 305.074219 230.785156 304.734375 C 230.273438 304.394531 229.78125 304.027344 229.308594 303.640625 C 228.832031 303.25 228.378906 302.835938 227.945312 302.402344 C 227.507812 301.96875 227.097656 301.515625 226.707031 301.039062 C 226.320312 300.566406 225.953125 300.074219 225.613281 299.5625 C 225.269531 299.050781 224.957031 298.523438 224.667969 297.984375 C 224.375 297.441406 224.113281 296.886719 223.878906 296.320312 C 223.644531 295.753906 223.4375 295.175781 223.257812 294.585938 C 223.082031 294 222.933594 293.40625 222.8125 292.800781 C 222.691406 292.199219 222.601562 291.59375 222.542969 290.984375 C 222.480469 290.371094 222.453125 289.757812 222.453125 289.144531 C 222.453125 288.53125 222.480469 287.917969 222.542969 287.308594 C 222.601562 286.695312 222.691406 286.089844 222.8125 285.488281 C 222.933594 284.882812 223.082031 284.289062 223.257812 283.703125 C 223.4375 283.113281 223.644531 282.535156 223.878906 281.96875 C 224.113281 281.402344 224.375 280.847656 224.667969 280.304688 C 224.957031 279.765625 225.269531 279.238281 225.613281 278.726562 C 225.953125 278.21875 226.320312 277.722656 226.707031 277.25 C 227.097656 276.773438 227.507812 276.320312 227.945312 275.886719 C 228.378906 275.453125 228.832031 275.039062 229.308594 274.652344 C 229.78125 274.261719 230.273438 273.894531 230.785156 273.554688 C 231.296875 273.214844 231.820312 272.898438 232.363281 272.609375 C 232.90625 272.320312 233.460938 272.058594 234.027344 271.820312 C 234.59375 271.585938 235.171875 271.378906 235.757812 271.203125 C 236.347656 271.023438 236.941406 270.875 237.542969 270.753906 C 238.144531 270.636719 238.753906 270.546875 239.363281 270.484375 C 239.976562 270.425781 240.589844 270.394531 241.203125 270.394531 C 241.816406 270.394531 242.429688 270.425781 243.039062 270.484375 C 243.652344 270.546875 244.257812 270.636719 244.859375 270.753906 C 245.460938 270.875 246.058594 271.023438 246.644531 271.203125 C 247.234375 271.378906 247.808594 271.585938 248.378906 271.820312 C 248.945312 272.058594 249.5 272.320312 250.039062 272.609375 C 250.582031 272.898438 251.109375 273.214844 251.617188 273.554688 C 252.128906 273.894531 252.621094 274.261719 253.097656 274.652344 C 253.570312 275.039062 254.027344 275.453125 254.460938 275.886719 C 254.894531 276.320312 255.304688 276.773438 255.695312 277.25 C 256.085938 277.722656 256.449219 278.21875 256.792969 278.726562 C 257.132812 279.238281 257.449219 279.765625 257.738281 280.304688 C 258.027344 280.847656 258.289062 281.402344 258.523438 281.96875 C 258.761719 282.535156 258.964844 283.113281 259.144531 283.703125 C 259.324219 284.289062 259.472656 284.882812 259.59375 285.488281 C 259.710938 286.089844 259.800781 286.695312 259.863281 287.308594 C 259.921875 287.917969 259.953125 288.53125 259.953125 289.144531 Z M 259.953125 289.144531 " fill-opacity="1" fill-rule="nonzero"/></g></svg>