<svg xmlns="http://www.w3.org/2000/svg" xmlns:xlink="http://www.w3.org/1999/xlink" width="500" zoomAndPan="magnify" viewBox="0 0 375 374.999991" height="500" preserveAspectRatio="xMidYMid meet" version="1.0"><defs><clipPath id="683c0a4bb8"><path d="M 212 220 L 300 220 L 300 306.996094 L 212 306.996094 Z M 212 220 " clip-rule="nonzero"/></clipPath></defs><path fill="white" d="M 167.925781 261.667969 C 166.167969 261.667969 164.414062 261.613281 162.660156 261.507812 C 160.90625 261.402344 159.15625 261.242188 157.414062 261.027344 C 155.667969 260.8125 153.933594 260.542969 152.207031 260.222656 C 150.476562 259.902344 148.761719 259.527344 147.058594 259.101562 C 145.351562 258.675781 143.664062 258.199219 141.988281 257.667969 C 140.3125 257.140625 138.65625 256.558594 137.015625 255.925781 C 135.375 255.292969 133.757812 254.613281 132.160156 253.882812 C 130.5625 253.152344 128.988281 252.371094 127.4375 251.542969 C 125.890625 250.714844 124.367188 249.839844 122.871094 248.921875 C 121.375 248 119.90625 247.03125 118.472656 246.023438 C 117.035156 245.011719 115.628906 243.957031 114.257812 242.859375 C 112.886719 241.761719 111.550781 240.621094 110.246094 239.441406 C 108.945312 238.261719 107.679688 237.042969 106.453125 235.789062 C 105.226562 234.53125 104.039062 233.238281 102.890625 231.90625 C 101.742188 230.578125 100.636719 229.210938 99.570312 227.8125 C 98.507812 226.417969 97.488281 224.988281 96.511719 223.527344 C 95.535156 222.066406 94.605469 220.574219 93.71875 219.058594 C 92.835938 217.539062 91.996094 215.996094 91.207031 214.425781 C 90.417969 212.859375 89.675781 211.265625 88.984375 209.652344 C 88.289062 208.035156 87.648438 206.402344 87.054688 204.75 C 86.464844 203.09375 85.921875 201.421875 85.433594 199.734375 C 84.945312 198.046875 84.507812 196.347656 84.121094 194.632812 C 83.738281 192.917969 83.40625 191.195312 83.125 189.460938 C 82.847656 187.726562 82.621094 185.984375 82.449219 184.234375 C 82.277344 182.488281 82.15625 180.734375 82.09375 178.980469 C 82.027344 177.222656 82.015625 175.46875 82.058594 173.710938 C 82.105469 171.953125 82.199219 170.199219 82.351562 168.449219 C 82.503906 166.699219 82.707031 164.957031 82.964844 163.21875 C 83.222656 161.480469 83.53125 159.75 83.898438 158.03125 C 84.261719 156.3125 84.675781 154.605469 85.144531 152.914062 C 85.613281 151.222656 86.136719 149.542969 86.707031 147.882812 C 87.277344 146.222656 87.902344 144.578125 88.574219 142.957031 C 89.246094 141.332031 89.96875 139.730469 90.738281 138.152344 C 91.507812 136.574219 92.328125 135.019531 93.195312 133.492188 C 94.058594 131.960938 94.972656 130.460938 95.929688 128.988281 C 96.890625 127.515625 97.890625 126.074219 98.9375 124.664062 C 99.984375 123.253906 101.074219 121.875 102.207031 120.53125 C 103.339844 119.1875 104.511719 117.878906 105.722656 116.605469 C 106.933594 115.335938 108.183594 114.101562 109.472656 112.90625 C 110.757812 111.710938 112.082031 110.554688 113.441406 109.441406 C 114.796875 108.328125 116.191406 107.253906 117.613281 106.226562 C 119.039062 105.199219 120.492188 104.214844 121.976562 103.273438 C 123.460938 102.335938 124.972656 101.441406 126.511719 100.59375 C 128.054688 99.75 129.617188 98.949219 131.207031 98.199219 C 132.792969 97.449219 134.402344 96.746094 136.035156 96.09375 C 137.667969 95.445312 139.316406 94.84375 140.984375 94.292969 C 142.65625 93.742188 144.339844 93.242188 146.039062 92.796875 C 147.738281 92.347656 149.449219 91.953125 151.171875 91.613281 C 152.894531 91.269531 154.625 90.980469 156.367188 90.746094 C 158.109375 90.507812 159.855469 90.328125 161.609375 90.199219 C 163.359375 90.070312 165.113281 89.996094 166.871094 89.976562 C 168.628906 89.953125 170.382812 89.988281 172.140625 90.074219 C 173.894531 90.160156 175.644531 90.300781 177.390625 90.496094 C 179.136719 90.691406 180.875 90.941406 182.605469 91.242188 C 184.335938 91.542969 186.058594 91.898438 187.765625 92.304688 C 189.476562 92.710938 191.171875 93.167969 192.851562 93.679688 C 194.53125 94.191406 196.195312 94.753906 197.84375 95.367188 C 199.488281 95.980469 201.117188 96.644531 202.722656 97.355469 C 204.328125 98.070312 205.910156 98.832031 207.46875 99.640625 C 209.027344 100.449219 210.558594 101.308594 212.066406 102.210938 C 213.574219 103.117188 215.050781 104.066406 216.5 105.0625 C 217.945312 106.054688 219.363281 107.09375 220.746094 108.175781 C 222.132812 109.257812 223.480469 110.382812 224.796875 111.546875 C 226.113281 112.710938 227.390625 113.914062 228.632812 115.15625 C 230.125 116.648438 231.558594 118.191406 232.9375 119.785156 C 234.3125 121.382812 235.632812 123.027344 236.886719 124.71875 C 238.144531 126.410156 239.335938 128.148438 240.464844 129.929688 C 241.59375 131.707031 242.65625 133.527344 243.652344 135.386719 C 244.644531 137.246094 245.570312 139.140625 246.425781 141.066406 C 247.28125 142.992188 248.0625 144.949219 248.773438 146.933594 C 249.484375 148.917969 250.121094 150.925781 250.683594 152.957031 C 251.246094 154.988281 251.734375 157.039062 252.148438 159.105469 C 252.558594 161.175781 252.894531 163.253906 253.152344 165.347656 C 253.410156 167.4375 253.589844 169.539062 253.695312 171.644531 C 253.800781 173.75 253.824219 175.855469 253.773438 177.960938 C 253.722656 180.070312 253.59375 182.171875 253.386719 184.269531 C 253.179688 186.367188 252.898438 188.457031 252.535156 190.535156 C 252.175781 192.609375 251.738281 194.671875 251.226562 196.714844 C 250.714844 198.761719 250.128906 200.785156 249.464844 202.785156 C 248.804688 204.789062 248.070312 206.761719 247.265625 208.710938 C 246.457031 210.65625 245.578125 212.574219 244.632812 214.457031 C 243.683594 216.339844 242.667969 218.183594 241.582031 219.992188 C 240.5 221.800781 239.347656 223.566406 238.136719 225.289062 C 236.921875 227.011719 235.644531 228.6875 234.304688 230.316406 C 232.96875 231.945312 231.574219 233.523438 230.117188 235.050781 C 228.664062 236.578125 227.15625 238.046875 225.59375 239.464844 C 224.03125 240.878906 222.417969 242.234375 220.753906 243.53125 C 219.09375 244.828125 217.386719 246.058594 215.632812 247.230469 C 213.878906 248.402344 212.085938 249.503906 210.25 250.542969 C 208.414062 251.582031 206.542969 252.550781 204.636719 253.449219 C 202.730469 254.351562 200.792969 255.179688 198.828125 255.9375 C 196.859375 256.695312 194.867188 257.378906 192.847656 257.988281 C 190.832031 258.601562 188.792969 259.136719 186.738281 259.597656 C 184.679688 260.054688 182.609375 260.441406 180.523438 260.75 C 178.4375 261.054688 176.34375 261.285156 174.242188 261.441406 C 172.136719 261.59375 170.03125 261.667969 167.925781 261.667969 Z M 167.925781 108.882812 C 166.644531 108.882812 165.367188 108.914062 164.089844 108.984375 C 162.808594 109.054688 161.535156 109.164062 160.265625 109.304688 C 158.992188 109.449219 157.726562 109.628906 156.464844 109.847656 C 155.203125 110.0625 153.949219 110.3125 152.703125 110.601562 C 151.457031 110.890625 150.21875 111.214844 148.988281 111.574219 C 147.761719 111.929688 146.542969 112.324219 145.339844 112.753906 C 144.132812 113.183594 142.941406 113.644531 141.761719 114.140625 C 140.582031 114.640625 139.417969 115.167969 138.269531 115.734375 C 137.121094 116.296875 135.988281 116.894531 134.871094 117.523438 C 133.757812 118.148438 132.664062 118.808594 131.585938 119.5 C 130.507812 120.191406 129.453125 120.914062 128.417969 121.667969 C 127.382812 122.417969 126.367188 123.199219 125.378906 124.007812 C 124.386719 124.820312 123.421875 125.65625 122.476562 126.523438 C 121.535156 127.386719 120.617188 128.28125 119.726562 129.199219 C 118.835938 130.117188 117.96875 131.058594 117.132812 132.027344 C 116.292969 132.992188 115.484375 133.984375 114.703125 135 C 113.925781 136.011719 113.171875 137.046875 112.453125 138.105469 C 111.730469 139.160156 111.039062 140.238281 110.378906 141.335938 C 109.71875 142.433594 109.09375 143.546875 108.496094 144.679688 C 107.902344 145.8125 107.335938 146.960938 106.808594 148.125 C 106.277344 149.289062 105.78125 150.46875 105.320312 151.660156 C 104.855469 152.855469 104.429688 154.0625 104.035156 155.277344 C 103.640625 156.496094 103.285156 157.722656 102.960938 158.960938 C 102.636719 160.199219 102.351562 161.449219 102.097656 162.703125 C 101.847656 163.957031 101.632812 165.21875 101.453125 166.484375 C 101.273438 167.753906 101.132812 169.023438 101.023438 170.296875 C 100.917969 171.574219 100.847656 172.851562 100.816406 174.128906 C 100.78125 175.410156 100.785156 176.6875 100.824219 177.96875 C 100.867188 179.246094 100.941406 180.523438 101.054688 181.796875 C 101.167969 183.074219 101.320312 184.34375 101.503906 185.609375 C 101.691406 186.875 101.914062 188.136719 102.171875 189.390625 C 102.429688 190.640625 102.726562 191.886719 103.054688 193.125 C 103.382812 194.359375 103.75 195.585938 104.148438 196.800781 C 104.550781 198.019531 104.984375 199.222656 105.453125 200.410156 C 105.921875 201.601562 106.425781 202.777344 106.960938 203.941406 C 107.496094 205.101562 108.066406 206.246094 108.667969 207.378906 C 109.269531 208.507812 109.90625 209.617188 110.570312 210.710938 C 111.234375 211.804688 111.933594 212.875 112.660156 213.929688 C 113.386719 214.980469 114.144531 216.011719 114.929688 217.023438 C 115.714844 218.03125 116.53125 219.019531 117.375 219.980469 C 118.21875 220.945312 119.085938 221.882812 119.984375 222.796875 C 120.878906 223.710938 121.800781 224.597656 122.75 225.457031 C 123.695312 226.316406 124.667969 227.148438 125.664062 227.953125 C 126.660156 228.757812 127.675781 229.53125 128.714844 230.28125 C 129.753906 231.027344 130.816406 231.742188 131.894531 232.425781 C 132.976562 233.113281 134.074219 233.765625 135.195312 234.390625 C 136.3125 235.011719 137.449219 235.601562 138.597656 236.160156 C 139.75 236.714844 140.917969 237.238281 142.101562 237.730469 C 143.28125 238.222656 144.476562 238.675781 145.683594 239.097656 C 146.894531 239.523438 148.113281 239.910156 149.34375 240.261719 C 150.574219 240.613281 151.8125 240.929688 153.0625 241.210938 C 154.308594 241.492188 155.566406 241.738281 156.828125 241.945312 C 158.089844 242.15625 159.359375 242.328125 160.628906 242.464844 C 161.902344 242.601562 163.175781 242.699219 164.457031 242.765625 C 165.734375 242.828125 167.011719 242.855469 168.292969 242.84375 C 169.574219 242.835938 170.851562 242.789062 172.128906 242.703125 C 173.40625 242.621094 174.679688 242.503906 175.949219 242.347656 C 177.21875 242.191406 178.484375 241.996094 179.742188 241.769531 C 181 241.539062 182.253906 241.273438 183.496094 240.976562 C 184.742188 240.675781 185.976562 240.339844 187.199219 239.96875 C 188.425781 239.597656 189.636719 239.191406 190.839844 238.75 C 192.039062 238.308594 193.230469 237.835938 194.402344 237.324219 C 195.578125 236.816406 196.734375 236.273438 197.878906 235.699219 C 199.023438 235.125 200.148438 234.515625 201.257812 233.878906 C 202.363281 233.238281 203.453125 232.566406 204.523438 231.863281 C 205.59375 231.164062 206.640625 230.429688 207.671875 229.667969 C 208.699219 228.90625 209.703125 228.113281 210.6875 227.296875 C 211.667969 226.476562 212.628906 225.628906 213.5625 224.753906 C 214.496094 223.878906 215.402344 222.976562 216.285156 222.050781 C 217.167969 221.125 218.023438 220.171875 218.851562 219.195312 C 219.679688 218.222656 220.476562 217.222656 221.25 216.199219 C 222.019531 215.179688 222.761719 214.136719 223.472656 213.070312 C 224.183594 212.007812 224.863281 210.925781 225.511719 209.820312 C 226.160156 208.71875 226.777344 207.597656 227.359375 206.457031 C 227.945312 205.320312 228.496094 204.164062 229.015625 202.996094 C 229.53125 201.824219 230.019531 200.640625 230.46875 199.445312 C 230.917969 198.246094 231.335938 197.035156 231.714844 195.816406 C 232.097656 194.59375 232.441406 193.363281 232.753906 192.121094 C 233.0625 190.878906 233.339844 189.628906 233.578125 188.371094 C 233.816406 187.113281 234.019531 185.851562 234.1875 184.582031 C 234.351562 183.3125 234.480469 182.042969 234.574219 180.765625 C 234.667969 179.488281 234.726562 178.210938 234.746094 176.929688 C 234.765625 175.652344 234.75 174.371094 234.699219 173.09375 C 234.644531 171.816406 234.554688 170.539062 234.429688 169.265625 C 234.304688 167.992188 234.140625 166.722656 233.941406 165.460938 C 233.742188 164.195312 233.507812 162.9375 233.238281 161.6875 C 232.964844 160.4375 232.660156 159.195312 232.316406 157.960938 C 231.976562 156.726562 231.597656 155.507812 231.1875 154.292969 C 230.773438 153.082031 230.328125 151.882812 229.847656 150.699219 C 229.367188 149.511719 228.851562 148.339844 228.304688 147.183594 C 227.757812 146.027344 227.175781 144.886719 226.5625 143.765625 C 225.949219 142.640625 225.304688 141.539062 224.628906 140.449219 C 223.949219 139.363281 223.242188 138.296875 222.507812 137.253906 C 221.769531 136.207031 221 135.183594 220.203125 134.183594 C 219.410156 133.179688 218.585938 132.203125 217.730469 131.246094 C 216.878906 130.292969 216 129.363281 215.09375 128.460938 C 211.996094 125.359375 208.628906 122.59375 204.988281 120.160156 C 201.34375 117.722656 197.5 115.664062 193.453125 113.984375 C 189.40625 112.304688 185.238281 111.039062 180.941406 110.179688 C 176.644531 109.320312 172.304688 108.890625 167.925781 108.882812 Z M 167.925781 108.882812 " fill-opacity="1" fill-rule="nonzero"/><g clip-path="url(#683c0a4bb8)"><path fill="white" d="M 289.621094 306.996094 C 288.375 306.992188 287.171875 306.75 286.019531 306.265625 C 284.867188 305.785156 283.851562 305.101562 282.972656 304.214844 L 215.28125 236.574219 C 214.84375 236.136719 214.453125 235.65625 214.109375 235.144531 C 213.765625 234.628906 213.472656 234.082031 213.238281 233.511719 C 213 232.9375 212.820312 232.347656 212.699219 231.738281 C 212.578125 231.132812 212.519531 230.519531 212.519531 229.898438 C 212.519531 229.277344 212.578125 228.664062 212.699219 228.058594 C 212.820312 227.449219 213 226.859375 213.238281 226.285156 C 213.472656 225.714844 213.765625 225.167969 214.109375 224.65625 C 214.453125 224.140625 214.84375 223.664062 215.28125 223.222656 C 215.722656 222.785156 216.199219 222.394531 216.714844 222.050781 C 217.230469 221.707031 217.773438 221.414062 218.34375 221.179688 C 218.917969 220.941406 219.507812 220.761719 220.117188 220.640625 C 220.722656 220.519531 221.335938 220.460938 221.957031 220.460938 C 222.578125 220.460938 223.191406 220.519531 223.800781 220.640625 C 224.40625 220.761719 224.996094 220.941406 225.570312 221.179688 C 226.140625 221.414062 226.6875 221.707031 227.203125 222.050781 C 227.71875 222.394531 228.195312 222.785156 228.632812 223.222656 L 296.273438 290.914062 C 296.929688 291.574219 297.476562 292.3125 297.914062 293.132812 C 298.347656 293.953125 298.65625 294.820312 298.835938 295.734375 C 299.019531 296.644531 299.0625 297.566406 298.972656 298.492188 C 298.878906 299.417969 298.65625 300.308594 298.300781 301.167969 C 297.945312 302.027344 297.472656 302.816406 296.882812 303.539062 C 296.296875 304.257812 295.613281 304.875 294.84375 305.394531 C 294.070312 305.914062 293.242188 306.308594 292.351562 306.582031 C 291.460938 306.855469 290.550781 306.992188 289.621094 306.996094 Z M 289.621094 306.996094 " fill-opacity="1" fill-rule="nonzero"/></g></svg>