<svg xmlns="http://www.w3.org/2000/svg" xmlns:xlink="http://www.w3.org/1999/xlink" width="500" zoomAndPan="magnify" viewBox="0 0 375 374.999991" height="500" preserveAspectRatio="xMidYMid meet" version="1.0"><defs><clipPath id="4d0873e3e1"><path d="M 68.765625 68.765625 L 306.515625 68.765625 L 306.515625 306.515625 L 68.765625 306.515625 Z M 68.765625 68.765625 " clip-rule="nonzero"/></clipPath></defs><path fill="black" d="M 175 131.257812 L 199.996094 131.257812 L 199.996094 137.507812 L 175 137.507812 Z M 175 131.257812 " fill-opacity="1" fill-rule="nonzero"/><g clip-path="url(#4d0873e3e1)"><path fill="white" d="M 187.5 68.765625 C 185.554688 68.765625 183.613281 68.8125 181.671875 68.90625 C 179.734375 69.003906 177.796875 69.144531 175.859375 69.335938 C 173.925781 69.527344 172 69.765625 170.078125 70.050781 C 168.15625 70.335938 166.242188 70.667969 164.335938 71.046875 C 162.429688 71.425781 160.535156 71.851562 158.648438 72.324219 C 156.765625 72.796875 154.890625 73.3125 153.03125 73.878906 C 151.171875 74.441406 149.328125 75.050781 147.5 75.707031 C 145.667969 76.359375 143.855469 77.058594 142.0625 77.804688 C 140.265625 78.546875 138.492188 79.332031 136.734375 80.164062 C 134.976562 80.996094 133.242188 81.867188 131.527344 82.785156 C 129.816406 83.699219 128.125 84.660156 126.457031 85.65625 C 124.789062 86.65625 123.148438 87.695312 121.535156 88.773438 C 119.917969 89.855469 118.332031 90.972656 116.769531 92.132812 C 115.207031 93.289062 113.675781 94.484375 112.175781 95.714844 C 110.671875 96.949219 109.203125 98.21875 107.761719 99.523438 C 106.324219 100.828125 104.914062 102.167969 103.542969 103.542969 C 102.167969 104.914062 100.828125 106.324219 99.523438 107.761719 C 98.21875 109.203125 96.949219 110.671875 95.714844 112.175781 C 94.484375 113.675781 93.289062 115.207031 92.132812 116.769531 C 90.972656 118.332031 89.855469 119.917969 88.773438 121.535156 C 87.695312 123.148438 86.65625 124.789062 85.65625 126.457031 C 84.660156 128.125 83.699219 129.816406 82.785156 131.527344 C 81.867188 133.242188 80.996094 134.976562 80.164062 136.734375 C 79.332031 138.492188 78.546875 140.265625 77.804688 142.0625 C 77.058594 143.855469 76.359375 145.667969 75.707031 147.5 C 75.050781 149.328125 74.441406 151.171875 73.878906 153.03125 C 73.3125 154.890625 72.796875 156.765625 72.324219 158.648438 C 71.851562 160.535156 71.425781 162.429688 71.046875 164.335938 C 70.667969 166.242188 70.335938 168.15625 70.050781 170.078125 C 69.765625 172 69.527344 173.925781 69.335938 175.859375 C 69.144531 177.796875 69.003906 179.734375 68.90625 181.671875 C 68.8125 183.613281 68.765625 185.554688 68.765625 187.5 C 68.765625 189.441406 68.8125 191.382812 68.90625 193.324219 C 69.003906 195.265625 69.144531 197.203125 69.335938 199.136719 C 69.527344 201.070312 69.765625 203 70.050781 204.921875 C 70.335938 206.84375 70.667969 208.757812 71.046875 210.664062 C 71.425781 212.570312 71.851562 214.464844 72.324219 216.347656 C 72.796875 218.234375 73.3125 220.105469 73.878906 221.964844 C 74.441406 223.824219 75.050781 225.671875 75.707031 227.5 C 76.359375 229.328125 77.058594 231.140625 77.804688 232.9375 C 78.546875 234.730469 79.332031 236.507812 80.164062 238.265625 C 80.996094 240.019531 81.867188 241.757812 82.785156 243.46875 C 83.699219 245.183594 84.660156 246.875 85.65625 248.539062 C 86.65625 250.207031 87.695312 251.847656 88.773438 253.464844 C 89.855469 255.082031 90.972656 256.667969 92.132812 258.230469 C 93.289062 259.789062 94.484375 261.320312 95.714844 262.824219 C 96.949219 264.324219 98.21875 265.796875 99.523438 267.238281 C 100.828125 268.675781 102.167969 270.082031 103.542969 271.457031 C 104.914062 272.832031 106.324219 274.171875 107.761719 275.476562 C 109.203125 276.78125 110.671875 278.050781 112.175781 279.28125 C 113.675781 280.515625 115.207031 281.710938 116.769531 282.867188 C 118.332031 284.023438 119.917969 285.144531 121.535156 286.222656 C 123.148438 287.304688 124.789062 288.34375 126.457031 289.339844 C 128.125 290.339844 129.816406 291.296875 131.527344 292.214844 C 133.242188 293.128906 134.976562 294.003906 136.734375 294.832031 C 138.492188 295.664062 140.265625 296.453125 142.0625 297.195312 C 143.855469 297.9375 145.667969 298.636719 147.5 299.292969 C 149.328125 299.949219 151.171875 300.558594 153.03125 301.121094 C 154.890625 301.683594 156.765625 302.203125 158.648438 302.675781 C 160.535156 303.148438 162.429688 303.574219 164.335938 303.953125 C 166.242188 304.332031 168.15625 304.664062 170.078125 304.949219 C 172 305.234375 173.925781 305.472656 175.859375 305.660156 C 177.796875 305.851562 179.734375 305.996094 181.671875 306.089844 C 183.613281 306.1875 185.554688 306.234375 187.5 306.234375 C 189.441406 306.234375 191.382812 306.1875 193.324219 306.089844 C 195.265625 305.996094 197.203125 305.851562 199.136719 305.660156 C 201.070312 305.472656 203 305.234375 204.921875 304.949219 C 206.84375 304.664062 208.757812 304.332031 210.664062 303.953125 C 212.570312 303.574219 214.464844 303.148438 216.347656 302.675781 C 218.234375 302.203125 220.105469 301.683594 221.964844 301.121094 C 223.824219 300.558594 225.671875 299.949219 227.5 299.292969 C 229.328125 298.636719 231.140625 297.9375 232.9375 297.195312 C 234.730469 296.453125 236.507812 295.664062 238.265625 294.832031 C 240.019531 294.003906 241.757812 293.128906 243.46875 292.214844 C 245.183594 291.296875 246.875 290.339844 248.539062 289.339844 C 250.207031 288.34375 251.847656 287.304688 253.464844 286.222656 C 255.082031 285.144531 256.667969 284.023438 258.230469 282.867188 C 259.789062 281.710938 261.320312 280.515625 262.824219 279.28125 C 264.324219 278.050781 265.796875 276.78125 267.238281 275.476562 C 268.675781 274.171875 270.082031 272.832031 271.457031 271.457031 C 272.832031 270.082031 274.171875 268.675781 275.476562 267.238281 C 276.78125 265.796875 278.050781 264.324219 279.28125 262.824219 C 280.515625 261.320312 281.710938 259.789062 282.867188 258.230469 C 284.023438 256.667969 285.144531 255.082031 286.222656 253.464844 C 287.304688 251.847656 288.34375 250.207031 289.339844 248.539062 C 290.339844 246.875 291.296875 245.183594 292.214844 243.46875 C 293.128906 241.757812 294.003906 240.019531 294.832031 238.265625 C 295.664062 236.507812 296.453125 234.730469 297.195312 232.9375 C 297.9375 231.140625 298.636719 229.328125 299.292969 227.5 C 299.949219 225.671875 300.558594 223.824219 301.121094 221.964844 C 301.683594 220.105469 302.203125 218.234375 302.675781 216.347656 C 303.148438 214.464844 303.574219 212.570312 303.953125 210.664062 C 304.332031 208.757812 304.664062 206.84375 304.949219 204.921875 C 305.234375 203 305.472656 201.070312 305.660156 199.136719 C 305.851562 197.203125 305.996094 195.265625 306.089844 193.324219 C 306.1875 191.382812 306.234375 189.441406 306.234375 187.5 C 306.230469 185.558594 306.183594 183.617188 306.085938 181.675781 C 305.988281 179.734375 305.84375 177.796875 305.648438 175.867188 C 305.457031 173.933594 305.21875 172.003906 304.929688 170.082031 C 304.644531 168.164062 304.3125 166.25 303.929688 164.34375 C 303.550781 162.441406 303.121094 160.546875 302.648438 158.660156 C 302.175781 156.777344 301.65625 154.90625 301.089844 153.046875 C 300.527344 151.1875 299.917969 149.34375 299.261719 147.515625 C 298.605469 145.6875 297.90625 143.875 297.160156 142.082031 C 296.417969 140.289062 295.628906 138.511719 294.796875 136.757812 C 293.964844 135 293.089844 133.265625 292.175781 131.554688 C 291.257812 129.839844 290.300781 128.152344 289.300781 126.484375 C 288.300781 124.820312 287.261719 123.179688 286.183594 121.566406 C 285.101562 119.949219 283.984375 118.363281 282.828125 116.800781 C 281.667969 115.242188 280.476562 113.710938 279.242188 112.210938 C 278.007812 110.707031 276.742188 109.238281 275.4375 107.800781 C 274.132812 106.359375 272.792969 104.953125 271.417969 103.578125 C 270.046875 102.207031 268.640625 100.867188 267.199219 99.5625 C 265.761719 98.257812 264.289062 96.988281 262.789062 95.757812 C 261.285156 94.523438 259.757812 93.328125 258.195312 92.171875 C 256.636719 91.015625 255.046875 89.894531 253.433594 88.816406 C 251.820312 87.734375 250.179688 86.695312 248.511719 85.695312 C 246.847656 84.699219 245.15625 83.738281 243.445312 82.824219 C 241.730469 81.90625 239.996094 81.035156 238.242188 80.203125 C 236.484375 79.371094 234.710938 78.582031 232.917969 77.839844 C 231.121094 77.09375 229.3125 76.394531 227.480469 75.738281 C 225.652344 75.082031 223.808594 74.472656 221.953125 73.90625 C 220.09375 73.34375 218.222656 72.824219 216.335938 72.347656 C 214.453125 71.875 212.558594 71.449219 210.652344 71.066406 C 208.75 70.6875 206.835938 70.355469 204.914062 70.066406 C 202.992188 69.78125 201.066406 69.539062 199.132812 69.347656 C 197.199219 69.15625 195.261719 69.011719 193.324219 68.914062 C 191.382812 68.816406 189.441406 68.765625 187.5 68.765625 Z M 237.492188 232.4375 C 237.472656 233.238281 237.410156 234.035156 237.308594 234.828125 C 237.210938 235.621094 237.070312 236.40625 236.894531 237.1875 C 236.714844 237.96875 236.5 238.738281 236.25 239.496094 C 235.996094 240.257812 235.707031 241 235.382812 241.730469 C 235.054688 242.460938 234.695312 243.175781 234.300781 243.871094 C 233.902344 244.566406 233.476562 245.238281 233.011719 245.894531 C 232.550781 246.546875 232.058594 247.175781 231.535156 247.78125 C 231.011719 248.386719 230.460938 248.964844 229.878906 249.515625 C 229.300781 250.066406 228.695312 250.585938 228.0625 251.078125 C 227.433594 251.570312 226.777344 252.03125 226.101562 252.457031 C 225.425781 252.886719 224.730469 253.277344 224.015625 253.636719 C 223.300781 253.996094 222.570312 254.320312 221.824219 254.609375 C 221.078125 254.894531 220.320312 255.148438 219.546875 255.359375 C 218.777344 255.574219 217.996094 255.75 217.207031 255.886719 C 216.421875 256.023438 215.628906 256.121094 214.828125 256.179688 C 214.03125 256.238281 213.234375 256.257812 212.433594 256.242188 L 162.566406 256.242188 C 161.765625 256.257812 160.964844 256.238281 160.167969 256.179688 C 159.371094 256.121094 158.578125 256.023438 157.789062 255.886719 C 157 255.75 156.222656 255.574219 155.449219 255.359375 C 154.679688 255.148438 153.921875 254.894531 153.175781 254.609375 C 152.429688 254.320312 151.699219 253.996094 150.984375 253.636719 C 150.269531 253.277344 149.574219 252.886719 148.894531 252.457031 C 148.21875 252.03125 147.566406 251.570312 146.933594 251.078125 C 146.304688 250.585938 145.699219 250.066406 145.117188 249.515625 C 144.539062 248.964844 143.988281 248.386719 143.464844 247.78125 C 142.941406 247.175781 142.449219 246.546875 141.984375 245.894531 C 141.523438 245.238281 141.09375 244.566406 140.699219 243.871094 C 140.304688 243.175781 139.945312 242.460938 139.617188 241.730469 C 139.292969 241 139.003906 240.257812 138.75 239.496094 C 138.496094 238.738281 138.28125 237.96875 138.105469 237.1875 C 137.929688 236.40625 137.789062 235.621094 137.6875 234.828125 C 137.589844 234.035156 137.527344 233.238281 137.507812 232.4375 L 137.507812 162.503906 C 137.507812 162.09375 137.546875 161.6875 137.625 161.285156 C 137.707031 160.882812 137.824219 160.492188 137.980469 160.109375 C 138.136719 159.730469 138.332031 159.371094 138.558594 159.03125 C 138.785156 158.691406 139.046875 158.375 139.335938 158.082031 C 139.625 157.792969 139.941406 157.535156 140.285156 157.304688 C 140.625 157.078125 140.984375 156.886719 141.363281 156.730469 C 141.742188 156.570312 142.132812 156.453125 142.535156 156.375 C 142.9375 156.292969 143.34375 156.253906 143.753906 156.253906 C 144.164062 156.253906 144.570312 156.292969 144.972656 156.375 C 145.375 156.453125 145.765625 156.570312 146.148438 156.730469 C 146.527344 156.886719 146.886719 157.078125 147.226562 157.304688 C 147.566406 157.535156 147.882812 157.792969 148.175781 158.082031 C 148.464844 158.375 148.722656 158.691406 148.949219 159.03125 C 149.179688 159.371094 149.371094 159.730469 149.527344 160.109375 C 149.6875 160.492188 149.804688 160.882812 149.882812 161.285156 C 149.964844 161.6875 150.003906 162.09375 150.003906 162.503906 L 150.003906 232.4375 C 150.046875 233.21875 150.167969 233.992188 150.363281 234.75 C 150.558594 235.507812 150.828125 236.242188 151.164062 236.949219 C 151.503906 237.652344 151.910156 238.320312 152.378906 238.949219 C 152.847656 239.574219 153.375 240.152344 153.957031 240.675781 C 154.539062 241.199219 155.167969 241.664062 155.839844 242.0625 C 156.515625 242.464844 157.21875 242.796875 157.957031 243.058594 C 158.695312 243.324219 159.453125 243.511719 160.226562 243.625 C 161.003906 243.742188 161.78125 243.78125 162.566406 243.742188 L 212.433594 243.742188 C 213.214844 243.78125 213.996094 243.742188 214.769531 243.625 C 215.546875 243.511719 216.300781 243.324219 217.039062 243.058594 C 217.777344 242.796875 218.484375 242.464844 219.15625 242.0625 C 219.832031 241.664062 220.460938 241.199219 221.042969 240.675781 C 221.625 240.152344 222.148438 239.574219 222.621094 238.949219 C 223.089844 238.320312 223.492188 237.652344 223.832031 236.949219 C 224.171875 236.242188 224.4375 235.507812 224.632812 234.75 C 224.832031 233.992188 224.949219 233.21875 224.996094 232.4375 L 224.996094 162.503906 C 224.996094 162.09375 225.035156 161.6875 225.113281 161.285156 C 225.195312 160.882812 225.3125 160.492188 225.46875 160.109375 C 225.628906 159.730469 225.820312 159.371094 226.046875 159.03125 C 226.277344 158.691406 226.535156 158.375 226.824219 158.082031 C 227.113281 157.792969 227.429688 157.535156 227.773438 157.304688 C 228.113281 157.078125 228.472656 156.886719 228.851562 156.730469 C 229.230469 156.570312 229.621094 156.453125 230.023438 156.375 C 230.425781 156.292969 230.832031 156.253906 231.242188 156.253906 C 231.652344 156.253906 232.058594 156.292969 232.460938 156.375 C 232.863281 156.453125 233.257812 156.570312 233.636719 156.730469 C 234.015625 156.886719 234.375 157.078125 234.714844 157.304688 C 235.054688 157.535156 235.371094 157.792969 235.664062 158.082031 C 235.953125 158.375 236.210938 158.691406 236.441406 159.03125 C 236.667969 159.371094 236.859375 159.730469 237.015625 160.109375 C 237.175781 160.492188 237.292969 160.882812 237.371094 161.285156 C 237.453125 161.6875 237.492188 162.09375 237.492188 162.503906 Z M 168.75 218.746094 L 168.75 175 C 168.75 174.589844 168.792969 174.183594 168.871094 173.78125 C 168.953125 173.378906 169.070312 172.988281 169.226562 172.609375 C 169.382812 172.230469 169.578125 171.871094 169.804688 171.527344 C 170.03125 171.1875 170.292969 170.871094 170.582031 170.582031 C 170.871094 170.292969 171.1875 170.03125 171.527344 169.804688 C 171.871094 169.578125 172.230469 169.382812 172.609375 169.226562 C 172.988281 169.070312 173.378906 168.953125 173.78125 168.871094 C 174.183594 168.792969 174.589844 168.75 175 168.75 C 175.410156 168.75 175.816406 168.792969 176.21875 168.871094 C 176.621094 168.953125 177.011719 169.070312 177.390625 169.226562 C 177.773438 169.382812 178.132812 169.578125 178.472656 169.804688 C 178.8125 170.03125 179.128906 170.292969 179.417969 170.582031 C 179.710938 170.871094 179.96875 171.1875 180.195312 171.527344 C 180.425781 171.871094 180.617188 172.230469 180.773438 172.609375 C 180.929688 172.988281 181.050781 173.378906 181.128906 173.78125 C 181.210938 174.183594 181.25 174.589844 181.25 175 L 181.25 218.746094 C 181.25 219.15625 181.210938 219.5625 181.128906 219.964844 C 181.050781 220.367188 180.929688 220.757812 180.773438 221.136719 C 180.617188 221.515625 180.425781 221.875 180.195312 222.21875 C 179.96875 222.558594 179.710938 222.875 179.417969 223.164062 C 179.128906 223.453125 178.8125 223.714844 178.472656 223.941406 C 178.132812 224.167969 177.773438 224.363281 177.390625 224.519531 C 177.011719 224.675781 176.621094 224.792969 176.21875 224.875 C 175.816406 224.953125 175.410156 224.996094 175 224.996094 C 174.589844 224.996094 174.183594 224.953125 173.78125 224.875 C 173.378906 224.792969 172.988281 224.675781 172.609375 224.519531 C 172.230469 224.363281 171.871094 224.167969 171.527344 223.941406 C 171.1875 223.714844 170.871094 223.453125 170.582031 223.164062 C 170.292969 222.875 170.03125 222.558594 169.804688 222.21875 C 169.578125 221.875 169.382812 221.515625 169.226562 221.136719 C 169.070312 220.757812 168.953125 220.367188 168.871094 219.964844 C 168.792969 219.5625 168.75 219.15625 168.75 218.746094 Z M 193.75 218.746094 L 193.75 175 C 193.75 174.589844 193.789062 174.183594 193.867188 173.78125 C 193.949219 173.378906 194.066406 172.988281 194.222656 172.609375 C 194.382812 172.230469 194.574219 171.871094 194.800781 171.527344 C 195.03125 171.1875 195.289062 170.871094 195.578125 170.582031 C 195.867188 170.292969 196.183594 170.03125 196.527344 169.804688 C 196.867188 169.578125 197.226562 169.382812 197.605469 169.226562 C 197.984375 169.070312 198.375 168.953125 198.777344 168.871094 C 199.179688 168.792969 199.585938 168.75 199.996094 168.75 C 200.40625 168.75 200.8125 168.792969 201.21875 168.871094 C 201.621094 168.953125 202.011719 169.070312 202.390625 169.226562 C 202.769531 169.382812 203.128906 169.578125 203.46875 169.804688 C 203.8125 170.03125 204.125 170.292969 204.417969 170.582031 C 204.707031 170.871094 204.964844 171.1875 205.195312 171.527344 C 205.421875 171.871094 205.613281 172.230469 205.769531 172.609375 C 205.929688 172.988281 206.046875 173.378906 206.125 173.78125 C 206.207031 174.183594 206.246094 174.589844 206.246094 175 L 206.246094 218.746094 C 206.246094 219.15625 206.207031 219.5625 206.125 219.964844 C 206.046875 220.367188 205.929688 220.757812 205.769531 221.136719 C 205.613281 221.515625 205.421875 221.875 205.195312 222.21875 C 204.964844 222.558594 204.707031 222.875 204.417969 223.164062 C 204.125 223.453125 203.8125 223.714844 203.46875 223.941406 C 203.128906 224.167969 202.769531 224.363281 202.390625 224.519531 C 202.011719 224.675781 201.621094 224.792969 201.21875 224.875 C 200.8125 224.953125 200.40625 224.996094 199.996094 224.996094 C 199.585938 224.996094 199.179688 224.953125 198.777344 224.875 C 198.375 224.792969 197.984375 224.675781 197.605469 224.519531 C 197.226562 224.363281 196.867188 224.167969 196.527344 223.941406 C 196.183594 223.714844 195.867188 223.453125 195.578125 223.164062 C 195.289062 222.875 195.03125 222.558594 194.800781 222.21875 C 194.574219 221.875 194.382812 221.515625 194.222656 221.136719 C 194.066406 220.757812 193.949219 220.367188 193.867188 219.964844 C 193.789062 219.5625 193.75 219.15625 193.75 218.746094 Z M 237.492188 150.003906 L 137.507812 150.003906 C 137.09375 150.003906 136.6875 149.964844 136.285156 149.882812 C 135.882812 149.804688 135.492188 149.6875 135.113281 149.527344 C 134.734375 149.371094 134.375 149.179688 134.035156 148.949219 C 133.691406 148.722656 133.378906 148.464844 133.085938 148.175781 C 132.796875 147.882812 132.539062 147.566406 132.308594 147.226562 C 132.082031 146.886719 131.890625 146.527344 131.730469 146.148438 C 131.574219 145.765625 131.457031 145.375 131.375 144.972656 C 131.296875 144.570312 131.257812 144.164062 131.257812 143.753906 C 131.257812 143.34375 131.296875 142.9375 131.375 142.535156 C 131.457031 142.132812 131.574219 141.742188 131.730469 141.363281 C 131.890625 140.984375 132.082031 140.625 132.308594 140.285156 C 132.539062 139.941406 132.796875 139.625 133.085938 139.335938 C 133.378906 139.046875 133.691406 138.785156 134.035156 138.558594 C 134.375 138.332031 134.734375 138.136719 135.113281 137.980469 C 135.492188 137.824219 135.882812 137.707031 136.285156 137.625 C 136.6875 137.546875 137.09375 137.507812 137.507812 137.507812 L 162.503906 137.507812 L 162.503906 125.007812 C 162.503906 124.597656 162.542969 124.191406 162.621094 123.789062 C 162.703125 123.386719 162.820312 122.996094 162.976562 122.617188 C 163.136719 122.238281 163.328125 121.875 163.554688 121.535156 C 163.785156 121.195312 164.042969 120.878906 164.332031 120.589844 C 164.625 120.296875 164.9375 120.039062 165.28125 119.8125 C 165.621094 119.582031 165.980469 119.390625 166.359375 119.234375 C 166.738281 119.078125 167.128906 118.957031 167.53125 118.878906 C 167.933594 118.796875 168.339844 118.757812 168.75 118.757812 L 206.246094 118.757812 C 206.65625 118.757812 207.0625 118.796875 207.464844 118.878906 C 207.867188 118.957031 208.257812 119.078125 208.636719 119.234375 C 209.015625 119.390625 209.378906 119.582031 209.71875 119.8125 C 210.058594 120.039062 210.375 120.296875 210.664062 120.589844 C 210.957031 120.878906 211.214844 121.195312 211.441406 121.535156 C 211.671875 121.875 211.863281 122.238281 212.019531 122.617188 C 212.175781 122.996094 212.296875 123.386719 212.375 123.789062 C 212.457031 124.191406 212.496094 124.597656 212.496094 125.007812 L 212.496094 137.507812 L 237.492188 137.507812 C 237.902344 137.507812 238.308594 137.546875 238.710938 137.625 C 239.113281 137.707031 239.503906 137.824219 239.882812 137.980469 C 240.261719 138.136719 240.625 138.332031 240.964844 138.558594 C 241.304688 138.785156 241.621094 139.046875 241.910156 139.335938 C 242.203125 139.625 242.460938 139.941406 242.6875 140.285156 C 242.917969 140.625 243.109375 140.984375 243.265625 141.363281 C 243.421875 141.742188 243.542969 142.132812 243.621094 142.535156 C 243.703125 142.9375 243.742188 143.34375 243.742188 143.753906 C 243.742188 144.164062 243.703125 144.570312 243.621094 144.972656 C 243.542969 145.375 243.421875 145.765625 243.265625 146.148438 C 243.109375 146.527344 242.917969 146.886719 242.6875 147.226562 C 242.460938 147.566406 242.203125 147.882812 241.910156 148.175781 C 241.621094 148.464844 241.304688 148.722656 240.964844 148.949219 C 240.625 149.179688 240.261719 149.371094 239.882812 149.527344 C 239.503906 149.6875 239.113281 149.804688 238.710938 149.882812 C 238.308594 149.964844 237.902344 150.003906 237.492188 150.003906 Z M 237.492188 150.003906 " fill-opacity="1" fill-rule="nonzero"/></g></svg>