<svg xmlns="http://www.w3.org/2000/svg" xmlns:xlink="http://www.w3.org/1999/xlink" width="500" zoomAndPan="magnify" viewBox="0 0 375 374.999991" height="500" preserveAspectRatio="xMidYMid meet" version="1.0"><defs><clipPath id="aeb6006d71"><path d="M 76.308594 272 L 318.558594 272 L 318.558594 314.226562 L 76.308594 314.226562 Z M 76.308594 272 " clip-rule="nonzero"/></clipPath><clipPath id="927d294a44"><path d="M 76.308594 166 L 261 166 L 261 209 L 76.308594 209 Z M 76.308594 166 " clip-rule="nonzero"/></clipPath><clipPath id="36f0c6c1b8"><path d="M 76.308594 60.726562 L 197 60.726562 L 197 104 L 76.308594 104 Z M 76.308594 60.726562 " clip-rule="nonzero"/></clipPath></defs><g clip-path="url(#aeb6006d71)"><path fill="white" d="M 97.433594 272.105469 L 297.878906 272.105469 C 298.566406 272.105469 299.257812 272.140625 299.945312 272.207031 C 300.632812 272.277344 301.316406 272.378906 301.992188 272.511719 C 302.671875 272.648438 303.339844 272.816406 304.003906 273.015625 C 304.664062 273.214844 305.3125 273.449219 305.953125 273.714844 C 306.589844 273.976562 307.214844 274.273438 307.824219 274.601562 C 308.433594 274.925781 309.027344 275.28125 309.601562 275.664062 C 310.175781 276.050781 310.730469 276.460938 311.265625 276.898438 C 311.796875 277.339844 312.308594 277.800781 312.796875 278.292969 C 313.289062 278.78125 313.75 279.292969 314.1875 279.828125 C 314.628906 280.359375 315.039062 280.914062 315.421875 281.492188 C 315.808594 282.066406 316.160156 282.660156 316.488281 283.269531 C 316.8125 283.878906 317.109375 284.503906 317.371094 285.140625 C 317.636719 285.78125 317.871094 286.429688 318.070312 287.09375 C 318.269531 287.753906 318.4375 288.425781 318.574219 289.101562 C 318.707031 289.78125 318.808594 290.464844 318.878906 291.152344 C 318.945312 291.839844 318.980469 292.53125 318.980469 293.222656 C 318.980469 293.914062 318.945312 294.605469 318.878906 295.292969 C 318.808594 295.980469 318.707031 296.664062 318.574219 297.339844 C 318.4375 298.019531 318.269531 298.691406 318.070312 299.351562 C 317.871094 300.011719 317.636719 300.664062 317.371094 301.300781 C 317.109375 301.941406 316.8125 302.566406 316.488281 303.175781 C 316.160156 303.785156 315.808594 304.378906 315.421875 304.953125 C 315.039062 305.527344 314.628906 306.082031 314.1875 306.617188 C 313.75 307.152344 313.289062 307.664062 312.796875 308.152344 C 312.308594 308.640625 311.796875 309.105469 311.265625 309.542969 C 310.730469 309.984375 310.175781 310.394531 309.601562 310.777344 C 309.027344 311.164062 308.433594 311.519531 307.824219 311.84375 C 307.214844 312.171875 306.589844 312.464844 305.953125 312.730469 C 305.3125 312.996094 304.664062 313.226562 304.003906 313.429688 C 303.339844 313.628906 302.671875 313.796875 301.992188 313.933594 C 301.316406 314.066406 300.632812 314.167969 299.945312 314.234375 C 299.257812 314.304688 298.566406 314.335938 297.878906 314.335938 L 97.433594 314.335938 C 96.742188 314.335938 96.054688 314.304688 95.363281 314.234375 C 94.675781 314.167969 93.996094 314.066406 93.316406 313.933594 C 92.640625 313.796875 91.96875 313.628906 91.308594 313.429688 C 90.644531 313.226562 89.996094 312.996094 89.359375 312.730469 C 88.71875 312.464844 88.09375 312.171875 87.484375 311.84375 C 86.875 311.519531 86.285156 311.164062 85.710938 310.777344 C 85.136719 310.394531 84.582031 309.984375 84.046875 309.542969 C 83.511719 309.105469 83 308.640625 82.511719 308.152344 C 82.023438 307.664062 81.558594 307.152344 81.121094 306.617188 C 80.683594 306.082031 80.273438 305.527344 79.886719 304.953125 C 79.503906 304.378906 79.148438 303.785156 78.824219 303.175781 C 78.496094 302.566406 78.203125 301.941406 77.9375 301.300781 C 77.671875 300.664062 77.441406 300.011719 77.238281 299.351562 C 77.039062 298.691406 76.871094 298.019531 76.738281 297.339844 C 76.601562 296.664062 76.5 295.980469 76.433594 295.292969 C 76.363281 294.605469 76.332031 293.914062 76.332031 293.222656 C 76.332031 292.53125 76.363281 291.839844 76.433594 291.152344 C 76.5 290.464844 76.601562 289.78125 76.738281 289.101562 C 76.871094 288.425781 77.039062 287.753906 77.238281 287.09375 C 77.441406 286.429688 77.671875 285.78125 77.9375 285.140625 C 78.203125 284.503906 78.496094 283.878906 78.824219 283.269531 C 79.148438 282.660156 79.503906 282.066406 79.886719 281.492188 C 80.273438 280.914062 80.683594 280.359375 81.121094 279.828125 C 81.558594 279.292969 82.023438 278.78125 82.511719 278.292969 C 83 277.800781 83.511719 277.339844 84.046875 276.898438 C 84.582031 276.460938 85.136719 276.050781 85.710938 275.664062 C 86.285156 275.28125 86.875 274.925781 87.484375 274.601562 C 88.09375 274.273438 88.71875 273.976562 89.359375 273.714844 C 89.996094 273.449219 90.644531 273.214844 91.308594 273.015625 C 91.96875 272.816406 92.640625 272.648438 93.316406 272.511719 C 93.996094 272.378906 94.675781 272.277344 95.363281 272.207031 C 96.054688 272.140625 96.742188 272.105469 97.433594 272.105469 Z M 97.433594 272.105469 " fill-opacity="1" fill-rule="nonzero"/></g><g clip-path="url(#927d294a44)"><path fill="white" d="M 97.433594 166.582031 L 239.082031 166.582031 C 239.769531 166.582031 240.460938 166.617188 241.148438 166.683594 C 241.835938 166.753906 242.519531 166.855469 243.195312 166.988281 C 243.875 167.125 244.542969 167.292969 245.207031 167.492188 C 245.867188 167.695312 246.515625 167.925781 247.15625 168.191406 C 247.792969 168.457031 248.417969 168.75 249.027344 169.078125 C 249.636719 169.402344 250.230469 169.757812 250.804688 170.140625 C 251.378906 170.527344 251.933594 170.9375 252.46875 171.375 C 253 171.816406 253.511719 172.277344 254 172.769531 C 254.492188 173.257812 254.953125 173.769531 255.390625 174.304688 C 255.832031 174.839844 256.242188 175.394531 256.625 175.96875 C 257.011719 176.542969 257.363281 177.136719 257.691406 177.746094 C 258.015625 178.355469 258.3125 178.980469 258.578125 179.617188 C 258.839844 180.257812 259.074219 180.90625 259.273438 181.570312 C 259.472656 182.230469 259.640625 182.902344 259.777344 183.578125 C 259.910156 184.257812 260.011719 184.941406 260.082031 185.628906 C 260.148438 186.316406 260.183594 187.007812 260.183594 187.699219 C 260.183594 188.390625 260.148438 189.082031 260.082031 189.769531 C 260.011719 190.457031 259.910156 191.140625 259.777344 191.820312 C 259.640625 192.496094 259.472656 193.167969 259.273438 193.828125 C 259.074219 194.492188 258.839844 195.140625 258.578125 195.78125 C 258.3125 196.417969 258.015625 197.042969 257.691406 197.652344 C 257.363281 198.261719 257.011719 198.855469 256.625 199.429688 C 256.242188 200.003906 255.832031 200.558594 255.390625 201.09375 C 254.953125 201.628906 254.492188 202.140625 254 202.628906 C 253.511719 203.121094 253 203.582031 252.46875 204.023438 C 251.933594 204.460938 251.378906 204.871094 250.804688 205.257812 C 250.230469 205.640625 249.636719 205.996094 249.027344 206.320312 C 248.417969 206.648438 247.792969 206.941406 247.15625 207.207031 C 246.515625 207.472656 245.867188 207.703125 245.207031 207.90625 C 244.542969 208.105469 243.875 208.273438 243.195312 208.410156 C 242.519531 208.542969 241.835938 208.644531 241.148438 208.714844 C 240.460938 208.78125 239.769531 208.816406 239.082031 208.816406 L 97.433594 208.816406 C 96.742188 208.816406 96.054688 208.78125 95.363281 208.714844 C 94.675781 208.644531 93.996094 208.542969 93.316406 208.410156 C 92.640625 208.273438 91.96875 208.105469 91.308594 207.90625 C 90.644531 207.703125 89.996094 207.472656 89.359375 207.207031 C 88.71875 206.941406 88.09375 206.648438 87.484375 206.320312 C 86.875 205.996094 86.285156 205.640625 85.710938 205.257812 C 85.136719 204.871094 84.582031 204.460938 84.046875 204.023438 C 83.511719 203.582031 83 203.121094 82.511719 202.628906 C 82.023438 202.140625 81.558594 201.628906 81.121094 201.09375 C 80.683594 200.558594 80.273438 200.003906 79.886719 199.429688 C 79.503906 198.855469 79.148438 198.261719 78.824219 197.652344 C 78.496094 197.042969 78.203125 196.417969 77.9375 195.78125 C 77.671875 195.140625 77.441406 194.492188 77.238281 193.828125 C 77.039062 193.167969 76.871094 192.496094 76.738281 191.820312 C 76.601562 191.140625 76.5 190.457031 76.433594 189.769531 C 76.363281 189.082031 76.332031 188.390625 76.332031 187.699219 C 76.332031 187.007812 76.363281 186.316406 76.433594 185.628906 C 76.5 184.941406 76.601562 184.257812 76.738281 183.578125 C 76.871094 182.902344 77.039062 182.230469 77.238281 181.570312 C 77.441406 180.90625 77.671875 180.257812 77.9375 179.617188 C 78.203125 178.980469 78.496094 178.355469 78.824219 177.746094 C 79.148438 177.136719 79.503906 176.542969 79.886719 175.96875 C 80.273438 175.394531 80.683594 174.839844 81.121094 174.304688 C 81.558594 173.769531 82.023438 173.257812 82.511719 172.769531 C 83 172.277344 83.511719 171.816406 84.046875 171.375 C 84.582031 170.9375 85.136719 170.527344 85.710938 170.140625 C 86.285156 169.757812 86.875 169.402344 87.484375 169.078125 C 88.09375 168.75 88.71875 168.457031 89.359375 168.191406 C 89.996094 167.925781 90.644531 167.695312 91.308594 167.492188 C 91.96875 167.292969 92.640625 167.125 93.316406 166.988281 C 93.996094 166.855469 94.675781 166.753906 95.363281 166.683594 C 96.054688 166.617188 96.742188 166.582031 97.433594 166.582031 Z M 97.433594 166.582031 " fill-opacity="1" fill-rule="nonzero"/></g><g clip-path="url(#36f0c6c1b8)"><path fill="white" d="M 175.773438 103.070312 L 97.433594 103.070312 C 96.742188 103.070312 96.054688 103.035156 95.363281 102.96875 C 94.675781 102.898438 93.996094 102.796875 93.316406 102.664062 C 92.640625 102.527344 91.96875 102.359375 91.308594 102.160156 C 90.644531 101.960938 89.996094 101.726562 89.359375 101.460938 C 88.71875 101.199219 88.09375 100.902344 87.484375 100.574219 C 86.875 100.25 86.285156 99.894531 85.710938 99.511719 C 85.136719 99.125 84.582031 98.714844 84.046875 98.277344 C 83.511719 97.835938 83 97.375 82.511719 96.882812 C 82.023438 96.394531 81.558594 95.882812 81.121094 95.347656 C 80.683594 94.816406 80.273438 94.261719 79.886719 93.683594 C 79.503906 93.109375 79.148438 92.515625 78.824219 91.90625 C 78.496094 91.296875 78.203125 90.671875 77.9375 90.035156 C 77.671875 89.394531 77.441406 88.746094 77.238281 88.082031 C 77.039062 87.421875 76.871094 86.75 76.738281 86.074219 C 76.601562 85.394531 76.5 84.710938 76.433594 84.023438 C 76.363281 83.335938 76.332031 82.644531 76.332031 81.953125 C 76.332031 81.261719 76.363281 80.570312 76.433594 79.882812 C 76.5 79.195312 76.601562 78.511719 76.738281 77.835938 C 76.871094 77.15625 77.039062 76.484375 77.238281 75.824219 C 77.441406 75.164062 77.671875 74.511719 77.9375 73.871094 C 78.203125 73.234375 78.496094 72.609375 78.824219 72 C 79.148438 71.390625 79.503906 70.796875 79.886719 70.222656 C 80.273438 69.648438 80.683594 69.09375 81.121094 68.558594 C 81.558594 68.023438 82.023438 67.511719 82.511719 67.023438 C 83 66.535156 83.511719 66.070312 84.046875 65.632812 C 84.582031 65.191406 85.136719 64.78125 85.710938 64.398438 C 86.285156 64.011719 86.875 63.65625 87.484375 63.332031 C 88.09375 63.003906 88.71875 62.710938 89.359375 62.445312 C 89.996094 62.179688 90.644531 61.949219 91.308594 61.746094 C 91.96875 61.546875 92.640625 61.378906 93.316406 61.242188 C 93.996094 61.109375 94.675781 61.007812 95.363281 60.941406 C 96.054688 60.871094 96.742188 60.839844 97.433594 60.839844 L 175.773438 60.839844 C 176.464844 60.839844 177.152344 60.871094 177.84375 60.941406 C 178.53125 61.007812 179.210938 61.109375 179.890625 61.242188 C 180.566406 61.378906 181.238281 61.546875 181.898438 61.746094 C 182.558594 61.949219 183.210938 62.179688 183.847656 62.445312 C 184.488281 62.710938 185.113281 63.003906 185.722656 63.332031 C 186.332031 63.65625 186.921875 64.011719 187.496094 64.398438 C 188.070312 64.78125 188.625 65.191406 189.160156 65.632812 C 189.695312 66.070312 190.207031 66.535156 190.695312 67.023438 C 191.183594 67.511719 191.648438 68.023438 192.085938 68.558594 C 192.523438 69.09375 192.933594 69.648438 193.320312 70.222656 C 193.703125 70.796875 194.058594 71.390625 194.382812 72 C 194.710938 72.609375 195.003906 73.234375 195.269531 73.871094 C 195.535156 74.511719 195.765625 75.164062 195.96875 75.824219 C 196.167969 76.484375 196.335938 77.15625 196.46875 77.835938 C 196.605469 78.511719 196.707031 79.195312 196.773438 79.882812 C 196.84375 80.570312 196.875 81.261719 196.875 81.953125 C 196.875 82.644531 196.84375 83.335938 196.773438 84.023438 C 196.707031 84.710938 196.605469 85.394531 196.46875 86.074219 C 196.335938 86.75 196.167969 87.421875 195.96875 88.082031 C 195.765625 88.746094 195.535156 89.394531 195.269531 90.035156 C 195.003906 90.671875 194.710938 91.296875 194.382812 91.90625 C 194.058594 92.515625 193.703125 93.109375 193.320312 93.683594 C 192.933594 94.261719 192.523438 94.816406 192.085938 95.347656 C 191.648438 95.882812 191.183594 96.394531 190.695312 96.882812 C 190.207031 97.375 189.695312 97.835938 189.160156 98.277344 C 188.625 98.714844 188.070312 99.125 187.496094 99.511719 C 186.921875 99.894531 186.332031 100.25 185.722656 100.574219 C 185.113281 100.902344 184.488281 101.199219 183.847656 101.460938 C 183.210938 101.726562 182.558594 101.960938 181.898438 102.160156 C 181.238281 102.359375 180.566406 102.527344 179.890625 102.664062 C 179.210938 102.796875 178.53125 102.898438 177.84375 102.96875 C 177.152344 103.035156 176.464844 103.070312 175.773438 103.070312 Z M 175.773438 103.070312 " fill-opacity="1" fill-rule="nonzero"/></g></svg>