<svg xmlns="http://www.w3.org/2000/svg" xmlns:xlink="http://www.w3.org/1999/xlink" width="500" zoomAndPan="magnify" viewBox="0 0 375 374.999991" height="500" preserveAspectRatio="xMidYMid meet" version="1.0"><defs><clipPath id="17a14813e8"><path d="M 128 67.566406 L 233 67.566406 L 233 172 L 128 172 Z M 128 67.566406 " clip-rule="nonzero"/></clipPath><clipPath id="3c6a2f4842"><path d="M 86.648438 182 L 274.148438 182 L 274.148438 307.566406 L 86.648438 307.566406 Z M 86.648438 182 " clip-rule="nonzero"/></clipPath></defs><g clip-path="url(#17a14813e8)"><path fill="white" d="M 180.398438 171.914062 C 182.101562 171.914062 183.804688 171.832031 185.503906 171.664062 C 187.199219 171.496094 188.886719 171.246094 190.558594 170.914062 C 192.230469 170.582031 193.882812 170.164062 195.515625 169.667969 C 197.148438 169.171875 198.753906 168.597656 200.328125 167.945312 C 201.90625 167.292969 203.445312 166.5625 204.949219 165.757812 C 206.453125 164.949219 207.914062 164.074219 209.332031 163.125 C 210.75 162.175781 212.121094 161.160156 213.4375 160.074219 C 214.757812 158.992188 216.019531 157.84375 217.226562 156.636719 C 218.433594 155.429688 219.578125 154.164062 220.660156 152.84375 C 221.742188 151.523438 222.753906 150.152344 223.703125 148.730469 C 224.652344 147.3125 225.527344 145.847656 226.332031 144.339844 C 227.136719 142.835938 227.863281 141.292969 228.515625 139.714844 C 229.167969 138.132812 229.742188 136.527344 230.238281 134.894531 C 230.734375 133.257812 231.148438 131.601562 231.480469 129.925781 C 231.8125 128.25 232.0625 126.5625 232.230469 124.863281 C 232.398438 123.164062 232.480469 121.457031 232.480469 119.75 C 232.480469 118.042969 232.398438 116.335938 232.230469 114.636719 C 232.0625 112.9375 231.8125 111.25 231.480469 109.574219 C 231.148438 107.898438 230.734375 106.242188 230.238281 104.605469 C 229.742188 102.972656 229.167969 101.367188 228.515625 99.785156 C 227.863281 98.207031 227.136719 96.664062 226.332031 95.160156 C 225.527344 93.652344 224.652344 92.1875 223.703125 90.769531 C 222.753906 89.347656 221.742188 87.976562 220.660156 86.65625 C 219.578125 85.335938 218.433594 84.070312 217.226562 82.863281 C 216.019531 81.65625 214.757812 80.507812 213.4375 79.425781 C 212.121094 78.339844 210.75 77.324219 209.332031 76.375 C 207.914062 75.425781 206.453125 74.550781 204.949219 73.742188 C 203.445312 72.9375 201.90625 72.207031 200.328125 71.554688 C 198.753906 70.902344 197.148438 70.328125 195.515625 69.832031 C 193.882812 69.335938 192.230469 68.917969 190.558594 68.585938 C 188.886719 68.253906 187.199219 68.003906 185.503906 67.835938 C 183.804688 67.667969 182.101562 67.585938 180.398438 67.585938 C 178.691406 67.585938 176.988281 67.667969 175.292969 67.835938 C 173.59375 68.003906 171.910156 68.253906 170.238281 68.585938 C 168.5625 68.917969 166.910156 69.335938 165.277344 69.832031 C 163.644531 70.328125 162.042969 70.902344 160.464844 71.554688 C 158.890625 72.207031 157.351562 72.9375 155.84375 73.742188 C 154.339844 74.550781 152.878906 75.425781 151.460938 76.375 C 150.042969 77.324219 148.675781 78.339844 147.355469 79.425781 C 146.039062 80.507812 144.773438 81.65625 143.570312 82.863281 C 142.363281 84.070312 141.21875 85.335938 140.136719 86.65625 C 139.054688 87.976562 138.039062 89.347656 137.089844 90.769531 C 136.144531 92.1875 135.269531 93.652344 134.464844 95.160156 C 133.660156 96.664062 132.929688 98.207031 132.277344 99.785156 C 131.625 101.367188 131.050781 102.972656 130.558594 104.605469 C 130.0625 106.242188 129.648438 107.898438 129.316406 109.574219 C 128.980469 111.25 128.730469 112.9375 128.566406 114.636719 C 128.398438 116.335938 128.3125 118.042969 128.3125 119.75 C 128.3125 121.457031 128.398438 123.164062 128.566406 124.863281 C 128.730469 126.5625 128.980469 128.25 129.316406 129.925781 C 129.648438 131.601562 130.0625 133.257812 130.558594 134.894531 C 131.050781 136.527344 131.625 138.132812 132.277344 139.714844 C 132.929688 141.292969 133.660156 142.835938 134.464844 144.339844 C 135.269531 145.847656 136.144531 147.3125 137.089844 148.730469 C 138.039062 150.152344 139.054688 151.523438 140.136719 152.84375 C 141.21875 154.164062 142.363281 155.429688 143.570312 156.636719 C 144.773438 157.84375 146.039062 158.992188 147.355469 160.074219 C 148.675781 161.160156 150.042969 162.175781 151.460938 163.125 C 152.878906 164.074219 154.339844 164.949219 155.84375 165.757812 C 157.351562 166.5625 158.890625 167.292969 160.464844 167.945312 C 162.042969 168.597656 163.644531 169.171875 165.277344 169.667969 C 166.910156 170.164062 168.5625 170.582031 170.238281 170.914062 C 171.910156 171.246094 173.59375 171.496094 175.292969 171.664062 C 176.988281 171.832031 178.691406 171.914062 180.398438 171.914062 Z M 180.398438 88.449219 C 181.421875 88.449219 182.441406 88.5 183.460938 88.601562 C 184.480469 88.703125 185.488281 88.851562 186.492188 89.050781 C 187.496094 89.25 188.488281 89.5 189.46875 89.796875 C 190.449219 90.097656 191.410156 90.441406 192.355469 90.832031 C 193.300781 91.226562 194.226562 91.664062 195.128906 92.144531 C 196.03125 92.628906 196.90625 93.15625 197.757812 93.726562 C 198.609375 94.292969 199.429688 94.90625 200.222656 95.554688 C 201.011719 96.207031 201.769531 96.894531 202.496094 97.617188 C 203.21875 98.34375 203.90625 99.101562 204.554688 99.894531 C 205.203125 100.6875 205.8125 101.507812 206.378906 102.359375 C 206.949219 103.214844 207.476562 104.089844 207.957031 104.996094 C 208.441406 105.898438 208.878906 106.824219 209.269531 107.773438 C 209.660156 108.71875 210.003906 109.683594 210.300781 110.664062 C 210.597656 111.644531 210.847656 112.636719 211.046875 113.644531 C 211.246094 114.648438 211.398438 115.660156 211.496094 116.683594 C 211.597656 117.703125 211.648438 118.726562 211.648438 119.75 C 211.648438 120.773438 211.597656 121.796875 211.496094 122.816406 C 211.398438 123.839844 211.246094 124.851562 211.046875 125.855469 C 210.847656 126.863281 210.597656 127.855469 210.300781 128.835938 C 210.003906 129.816406 209.660156 130.78125 209.269531 131.726562 C 208.878906 132.675781 208.441406 133.601562 207.957031 134.503906 C 207.476562 135.410156 206.949219 136.285156 206.378906 137.140625 C 205.8125 137.992188 205.203125 138.8125 204.554688 139.605469 C 203.90625 140.398438 203.21875 141.15625 202.496094 141.882812 C 201.769531 142.605469 201.011719 143.292969 200.222656 143.945312 C 199.429688 144.59375 198.609375 145.207031 197.757812 145.773438 C 196.90625 146.34375 196.03125 146.871094 195.128906 147.355469 C 194.226562 147.835938 193.300781 148.273438 192.355469 148.667969 C 191.410156 149.058594 190.449219 149.402344 189.46875 149.703125 C 188.488281 150 187.496094 150.25 186.492188 150.449219 C 185.488281 150.648438 184.480469 150.796875 183.460938 150.898438 C 182.441406 151 181.421875 151.050781 180.398438 151.050781 C 179.375 151.050781 178.351562 151 177.335938 150.898438 C 176.316406 150.796875 175.304688 150.648438 174.300781 150.449219 C 173.296875 150.25 172.304688 150 171.324219 149.703125 C 170.347656 149.402344 169.382812 149.058594 168.4375 148.667969 C 167.492188 148.273438 166.570312 147.835938 165.667969 147.355469 C 164.761719 146.871094 163.886719 146.34375 163.035156 145.773438 C 162.183594 145.207031 161.363281 144.59375 160.574219 143.945312 C 159.78125 143.292969 159.023438 142.605469 158.300781 141.882812 C 157.578125 141.15625 156.890625 140.398438 156.242188 139.605469 C 155.589844 138.8125 154.984375 137.992188 154.414062 137.140625 C 153.84375 136.285156 153.320312 135.410156 152.835938 134.503906 C 152.355469 133.601562 151.917969 132.675781 151.527344 131.726562 C 151.132812 130.78125 150.789062 129.816406 150.492188 128.835938 C 150.195312 127.855469 149.949219 126.863281 149.746094 125.855469 C 149.546875 124.851562 149.398438 123.839844 149.296875 122.816406 C 149.199219 121.796875 149.148438 120.773438 149.148438 119.75 C 149.148438 118.726562 149.199219 117.703125 149.296875 116.683594 C 149.398438 115.660156 149.546875 114.648438 149.746094 113.644531 C 149.949219 112.636719 150.195312 111.644531 150.492188 110.664062 C 150.789062 109.683594 151.132812 108.71875 151.527344 107.773438 C 151.917969 106.824219 152.355469 105.898438 152.835938 104.996094 C 153.320312 104.089844 153.84375 103.214844 154.414062 102.359375 C 154.984375 101.507812 155.589844 100.6875 156.242188 99.894531 C 156.890625 99.101562 157.578125 98.34375 158.300781 97.617188 C 159.023438 96.894531 159.78125 96.207031 160.574219 95.554688 C 161.363281 94.90625 162.183594 94.292969 163.035156 93.726562 C 163.886719 93.15625 164.761719 92.628906 165.667969 92.144531 C 166.570312 91.664062 167.492188 91.226562 168.4375 90.832031 C 169.382812 90.441406 170.347656 90.097656 171.324219 89.796875 C 172.304688 89.5 173.296875 89.25 174.300781 89.050781 C 175.304688 88.851562 176.316406 88.703125 177.335938 88.601562 C 178.351562 88.5 179.375 88.449219 180.398438 88.449219 Z M 180.398438 88.449219 " fill-opacity="1" fill-rule="nonzero"/></g><g clip-path="url(#3c6a2f4842)"><path fill="white" d="M 180.398438 182.347656 C 178.863281 182.347656 177.328125 182.386719 175.796875 182.460938 C 174.265625 182.539062 172.734375 182.652344 171.207031 182.800781 C 169.679688 182.953125 168.160156 183.140625 166.640625 183.367188 C 165.125 183.589844 163.613281 183.855469 162.109375 184.152344 C 160.601562 184.453125 159.105469 184.789062 157.617188 185.164062 C 156.128906 185.535156 154.652344 185.945312 153.183594 186.390625 C 151.714844 186.839844 150.257812 187.320312 148.8125 187.839844 C 147.371094 188.355469 145.9375 188.910156 144.519531 189.496094 C 143.101562 190.085938 141.699219 190.707031 140.3125 191.363281 C 138.925781 192.023438 137.558594 192.710938 136.203125 193.4375 C 134.851562 194.160156 133.515625 194.917969 132.199219 195.707031 C 130.882812 196.5 129.589844 197.320312 128.3125 198.175781 C 127.035156 199.027344 125.78125 199.914062 124.550781 200.828125 C 123.316406 201.742188 122.109375 202.6875 120.921875 203.664062 C 119.738281 204.636719 118.574219 205.640625 117.4375 206.671875 C 116.300781 207.707031 115.191406 208.765625 114.105469 209.851562 C 113.019531 210.9375 111.964844 212.050781 110.933594 213.1875 C 109.902344 214.328125 108.902344 215.492188 107.925781 216.679688 C 106.953125 217.867188 106.011719 219.078125 105.097656 220.3125 C 104.183594 221.546875 103.300781 222.804688 102.445312 224.082031 C 101.59375 225.359375 100.773438 226.65625 99.984375 227.972656 C 99.195312 229.292969 98.441406 230.628906 97.71875 231.984375 C 96.992188 233.339844 96.304688 234.710938 95.648438 236.101562 C 94.992188 237.492188 94.371094 238.894531 93.785156 240.316406 C 93.195312 241.734375 92.644531 243.167969 92.128906 244.613281 C 91.609375 246.0625 91.128906 247.519531 90.683594 248.992188 C 90.238281 250.460938 89.828125 251.941406 89.457031 253.433594 C 89.085938 254.921875 88.75 256.421875 88.449219 257.929688 C 88.148438 259.4375 87.886719 260.949219 87.664062 262.46875 C 87.4375 263.992188 87.25 265.515625 87.097656 267.042969 C 86.949219 268.574219 86.835938 270.105469 86.761719 271.640625 C 86.683594 273.175781 86.648438 274.710938 86.648438 276.246094 L 86.648438 297.113281 C 86.648438 297.800781 86.714844 298.476562 86.847656 299.148438 C 86.980469 299.820312 87.179688 300.472656 87.441406 301.105469 C 87.703125 301.738281 88.023438 302.339844 88.402344 302.910156 C 88.78125 303.480469 89.214844 304.007812 89.699219 304.492188 C 90.183594 304.976562 90.707031 305.410156 91.277344 305.789062 C 91.84375 306.167969 92.445312 306.492188 93.078125 306.753906 C 93.710938 307.015625 94.359375 307.214844 95.03125 307.347656 C 95.703125 307.480469 96.378906 307.546875 97.0625 307.546875 L 263.730469 307.546875 C 264.414062 307.546875 265.09375 307.480469 265.761719 307.347656 C 266.433594 307.214844 267.085938 307.015625 267.71875 306.753906 C 268.347656 306.492188 268.949219 306.167969 269.519531 305.789062 C 270.085938 305.410156 270.613281 304.976562 271.097656 304.492188 C 271.578125 304.007812 272.011719 303.480469 272.390625 302.910156 C 272.773438 302.339844 273.09375 301.738281 273.355469 301.105469 C 273.617188 300.472656 273.8125 299.820312 273.945312 299.148438 C 274.082031 298.476562 274.148438 297.800781 274.148438 297.113281 L 274.148438 276.246094 C 274.148438 274.710938 274.109375 273.175781 274.035156 271.640625 C 273.960938 270.105469 273.847656 268.574219 273.695312 267.042969 C 273.546875 265.515625 273.359375 263.992188 273.132812 262.46875 C 272.90625 260.949219 272.644531 259.4375 272.347656 257.929688 C 272.046875 256.421875 271.710938 254.921875 271.335938 253.433594 C 270.964844 251.941406 270.554688 250.460938 270.109375 248.992188 C 269.664062 247.519531 269.183594 246.0625 268.667969 244.613281 C 268.148438 243.167969 267.597656 241.734375 267.011719 240.316406 C 266.425781 238.894531 265.800781 237.492188 265.144531 236.101562 C 264.492188 234.710938 263.800781 233.339844 263.078125 231.984375 C 262.355469 230.628906 261.597656 229.292969 260.808594 227.972656 C 260.019531 226.65625 259.199219 225.359375 258.347656 224.082031 C 257.496094 222.804688 256.613281 221.546875 255.699219 220.3125 C 254.785156 219.078125 253.839844 217.867188 252.867188 216.679688 C 251.894531 215.492188 250.890625 214.328125 249.863281 213.1875 C 248.832031 212.050781 247.773438 210.9375 246.6875 209.851562 C 245.605469 208.765625 244.492188 207.707031 243.355469 206.671875 C 242.21875 205.640625 241.058594 204.636719 239.871094 203.664062 C 238.6875 202.6875 237.476562 201.742188 236.246094 200.828125 C 235.011719 199.914062 233.757812 199.027344 232.480469 198.175781 C 231.207031 197.320312 229.910156 196.5 228.59375 195.707031 C 227.277344 194.917969 225.945312 194.160156 224.589844 193.4375 C 223.238281 192.710938 221.867188 192.023438 220.480469 191.363281 C 219.09375 190.707031 217.691406 190.085938 216.273438 189.496094 C 214.855469 188.910156 213.425781 188.355469 211.980469 187.839844 C 210.535156 187.320312 209.078125 186.839844 207.613281 186.390625 C 206.144531 185.945312 204.664062 185.535156 203.175781 185.164062 C 201.6875 184.789062 200.191406 184.453125 198.6875 184.152344 C 197.183594 183.855469 195.671875 183.589844 194.152344 183.367188 C 192.636719 183.140625 191.113281 182.953125 189.585938 182.800781 C 188.058594 182.652344 186.53125 182.539062 184.996094 182.460938 C 183.464844 182.386719 181.933594 182.347656 180.398438 182.347656 Z M 253.3125 286.679688 L 107.480469 286.679688 L 107.480469 276.246094 C 107.480469 275.050781 107.511719 273.859375 107.570312 272.664062 C 107.628906 271.46875 107.714844 270.277344 107.832031 269.089844 C 107.949219 267.898438 108.09375 266.714844 108.269531 265.53125 C 108.445312 264.347656 108.648438 263.171875 108.882812 262 C 109.113281 260.828125 109.375 259.660156 109.664062 258.503906 C 109.957031 257.34375 110.273438 256.191406 110.621094 255.046875 C 110.96875 253.902344 111.339844 252.769531 111.742188 251.644531 C 112.144531 250.519531 112.574219 249.402344 113.03125 248.300781 C 113.488281 247.195312 113.972656 246.101562 114.480469 245.023438 C 114.992188 243.941406 115.527344 242.875 116.089844 241.820312 C 116.652344 240.765625 117.242188 239.726562 117.855469 238.703125 C 118.46875 237.675781 119.105469 236.667969 119.769531 235.671875 C 120.433594 234.679688 121.121094 233.703125 121.832031 232.742188 C 122.542969 231.78125 123.273438 230.839844 124.03125 229.917969 C 124.789062 228.992188 125.566406 228.089844 126.371094 227.203125 C 127.171875 226.316406 127.992188 225.453125 128.835938 224.605469 C 129.679688 223.761719 130.546875 222.9375 131.429688 222.132812 C 132.3125 221.332031 133.21875 220.550781 134.140625 219.792969 C 135.0625 219.035156 136.003906 218.300781 136.960938 217.585938 C 137.917969 216.875 138.894531 216.1875 139.886719 215.523438 C 140.878906 214.859375 141.886719 214.21875 142.910156 213.605469 C 143.933594 212.992188 144.972656 212.402344 146.023438 211.839844 C 147.078125 211.277344 148.144531 210.738281 149.222656 210.226562 C 150.300781 209.714844 151.390625 209.230469 152.492188 208.773438 C 153.597656 208.316406 154.707031 207.886719 155.832031 207.484375 C 156.957031 207.082031 158.089844 206.707031 159.230469 206.359375 C 160.371094 206.011719 161.523438 205.695312 162.679688 205.402344 C 163.835938 205.113281 165 204.851562 166.171875 204.617188 C 167.34375 204.386719 168.519531 204.179688 169.699219 204.007812 C 170.878906 203.832031 172.0625 203.683594 173.25 203.566406 C 174.4375 203.449219 175.628906 203.363281 176.820312 203.304688 C 178.011719 203.246094 179.203125 203.214844 180.398438 203.214844 C 181.589844 203.214844 182.785156 203.246094 183.976562 203.304688 C 185.167969 203.363281 186.355469 203.449219 187.542969 203.566406 C 188.730469 203.683594 189.917969 203.832031 191.097656 204.007812 C 192.277344 204.179688 193.453125 204.386719 194.621094 204.617188 C 195.792969 204.851562 196.957031 205.113281 198.113281 205.402344 C 199.273438 205.695312 200.421875 206.011719 201.5625 206.359375 C 202.707031 206.707031 203.839844 207.082031 204.960938 207.484375 C 206.085938 207.886719 207.199219 208.316406 208.300781 208.773438 C 209.402344 209.230469 210.496094 209.714844 211.574219 210.226562 C 212.652344 210.738281 213.71875 211.277344 214.769531 211.839844 C 215.824219 212.402344 216.859375 212.992188 217.882812 213.605469 C 218.90625 214.21875 219.914062 214.859375 220.90625 215.523438 C 221.898438 216.1875 222.875 216.875 223.832031 217.585938 C 224.792969 218.300781 225.734375 219.035156 226.65625 219.792969 C 227.578125 220.550781 228.480469 221.332031 229.367188 222.132812 C 230.25 222.9375 231.113281 223.761719 231.957031 224.605469 C 232.800781 225.453125 233.625 226.316406 234.425781 227.203125 C 235.226562 228.089844 236.003906 228.992188 236.761719 229.917969 C 237.519531 230.839844 238.253906 231.78125 238.964844 232.742188 C 239.675781 233.703125 240.363281 234.679688 241.027344 235.671875 C 241.6875 236.667969 242.328125 237.675781 242.941406 238.703125 C 243.554688 239.726562 244.140625 240.765625 244.703125 241.820312 C 245.265625 242.875 245.804688 243.941406 246.3125 245.023438 C 246.824219 246.101562 247.308594 247.195312 247.761719 248.300781 C 248.21875 249.402344 248.648438 250.519531 249.050781 251.644531 C 249.453125 252.769531 249.828125 253.902344 250.175781 255.046875 C 250.519531 256.191406 250.839844 257.34375 251.128906 258.503906 C 251.417969 259.660156 251.679688 260.828125 251.914062 262 C 252.144531 263.171875 252.351562 264.347656 252.523438 265.53125 C 252.699219 266.714844 252.847656 267.898438 252.964844 269.089844 C 253.078125 270.277344 253.167969 271.46875 253.226562 272.664062 C 253.285156 273.859375 253.3125 275.050781 253.3125 276.246094 Z M 253.3125 286.679688 " fill-opacity="1" fill-rule="nonzero"/></g></svg>